M48
;Layer_Color=9474304
;FILE_FORMAT=4:4
METRIC,LZ
;TYPE=PLATED
T01F00S00C0.2000
T02F00S00C0.2500
T03F00S00C0.3000
T05F00S00C0.8500
T06F00S00C1.0200
%
T01
X0023749Y0004826
X0022987Y0012573
X00239064Y00148742
X0022987Y0019685
X0016764Y0026416
X0016256Y002794
Y0029718
X0016383Y0031115
X0028448Y004064
T02
X0047625Y0003683
Y0006096
X0047752Y0008763
Y0011303
Y0013843
X0028956Y0010922
X0027178
X0022606Y0010668
X0022098Y0011938
X0022222Y0014475
X0018669Y0010033
X00222945Y00038675
X0000762Y0003048
Y0005588
X0000635Y0008128
Y0010668
X0000762Y0013208
Y0015748
Y0018288
Y0020828
Y0023368
Y0025908
Y0028448
Y0030988
Y0033528
Y0036068
Y0038608
Y0041148
X0000889Y0043815
Y0046228
X0005969
X0011049Y0045339
X0011176Y00425051
X001524Y0047498
X002437Y0047404
X002637
X0024003Y0045339
X0021717Y0043942
X0029083Y0044577
X0030988Y0042291
X0033288Y0044055
X00319641Y0039116
X00295039
X002032Y0031496
X0018034Y0030235
X0018034Y0028194
X0013462Y0027686
X0016002Y0034433
X0019812Y002032
X0022225Y001905
X002413Y0019177
X00255012Y00189274
Y00174034
X0024892Y0017018
X0024765Y0015494
X0025654Y001524
X0025908Y0016129
X0028829Y001651
Y001526
X0023368Y0014605
X0022098Y0016002
X0022733Y0017145
X0023622Y0021463
X002667Y0020193
X0031506Y0019304
X0047752Y0018923
Y0016383
Y0021463
Y0024003
Y0026543
Y0029083
Y0031623
Y0034163
Y0036703
X0047879Y0039243
Y0041783
X0047752Y0044323
Y0046863
X00335679Y0039116
T03
X0020574Y0016129
T05
X002287Y0044704
X002787
T06
X0043688Y0003683
X0046228
Y0006223
X0043688
Y0008763
X0046228
Y0011303
X0043688
Y0013843
X0046228
X0004826Y0013208
X0002286
Y0010668
X0004826
Y0008128
X0002286
Y0005588
X0004826
Y0003048
X0002286
Y0015748
Y0018288
Y0020828
Y0023368
Y0025908
Y0028448
Y0030988
Y0033528
Y0036068
Y0038608
Y0041148
Y0043688
Y0046228
X0004826
Y0043688
Y0041148
Y0038608
Y0036068
Y0033528
Y0030988
Y0028448
Y0025908
Y0023368
Y0020828
Y0018288
Y0015748
X001524Y0044069
Y0046609
X0043688Y0046863
Y0044323
Y0041783
Y0039243
Y0036703
Y0034163
Y0031623
Y0029083
Y0026543
Y0024003
Y0021463
Y0018923
Y0016383
X0046228
Y0018923
Y0021463
Y0024003
Y0026543
Y0029083
Y0031623
Y0034163
Y0036703
Y0039243
Y0041783
Y0044323
Y0046863
M30
