%TF.GenerationSoftware,Altium Limited,Altium Designer,24.10.1 (45)*%
G04 Layer_Color=8388736*
%FSLAX45Y45*%
%MOMM*%
%TF.SameCoordinates,4DA1E9EC-797C-4A4C-9375-46A5AD340D12*%
%TF.FilePolarity,Negative*%
%TF.FileFunction,Soldermask,Top*%
%TF.Part,Single*%
G01*
G75*
%TA.AperFunction,SMDPad,CuDef*%
%ADD15R,0.81280X0.17780*%
%ADD16R,0.17780X0.81280*%
%ADD17R,3.20040X3.20040*%
%ADD18R,0.90000X0.80000*%
%ADD21R,1.70000X2.40000*%
%ADD22R,0.80000X0.90000*%
%TA.AperFunction,ComponentPad*%
%ADD34C,1.57000*%
%ADD35R,1.57000X1.57000*%
%TA.AperFunction,NonConductor*%
%ADD51C,0.65000*%
%TA.AperFunction,SMDPad,CuDef*%
%ADD52R,0.55000X1.50000*%
%ADD53R,1.65000X2.05000*%
%ADD54R,3.95000X2.15000*%
%ADD55R,1.65000X2.15000*%
%ADD56R,1.60000X1.35000*%
G04:AMPARAMS|DCode=57|XSize=1.76mm|YSize=0.73mm|CornerRadius=0.1475mm|HoleSize=0mm|Usage=FLASHONLY|Rotation=0.000|XOffset=0mm|YOffset=0mm|HoleType=Round|Shape=RoundedRectangle|*
%AMROUNDEDRECTD57*
21,1,1.76000,0.43500,0,0,0.0*
21,1,1.46500,0.73000,0,0,0.0*
1,1,0.29500,0.73250,-0.21750*
1,1,0.29500,-0.73250,-0.21750*
1,1,0.29500,-0.73250,0.21750*
1,1,0.29500,0.73250,0.21750*
%
%ADD57ROUNDEDRECTD57*%
%ADD58R,1.05000X0.85000*%
%TA.AperFunction,ComponentPad*%
%ADD59C,1.52000*%
%ADD60R,1.52000X1.52000*%
%ADD61C,1.60000*%
%TA.AperFunction,ViaPad*%
%ADD62C,0.60000*%
%ADD63C,0.65000*%
G36*
X2308177Y4842831D02*
X2309325Y4842555D01*
X2310415Y4842103D01*
X2311422Y4841486D01*
X2312320Y4840720D01*
X2313086Y4839822D01*
X2313703Y4838816D01*
X2314155Y4837725D01*
X2314430Y4836577D01*
X2314523Y4835400D01*
Y4645400D01*
X2314430Y4644223D01*
X2314155Y4643075D01*
X2313703Y4641984D01*
X2313086Y4640978D01*
X2312320Y4640080D01*
X2311422Y4639314D01*
X2310415Y4638697D01*
X2309325Y4638245D01*
X2308177Y4637969D01*
X2307000Y4637877D01*
X2177000D01*
X2175823Y4637969D01*
X2174675Y4638245D01*
X2173584Y4638697D01*
X2172578Y4639314D01*
X2171680Y4640080D01*
X2170914Y4640978D01*
X2170297Y4641984D01*
X2169845Y4643075D01*
X2169569Y4644223D01*
X2169477Y4645400D01*
Y4687874D01*
X2127002D01*
X2125825Y4687967D01*
X2124677Y4688242D01*
X2123587Y4688694D01*
X2122580Y4689311D01*
X2121814Y4689965D01*
X2121683Y4690077D01*
Y4690077D01*
X2121682D01*
X2121571Y4690208D01*
X2120916Y4690975D01*
X2120299Y4691981D01*
X2119847Y4693072D01*
X2119572Y4694220D01*
X2119479Y4695397D01*
X2119477Y4785400D01*
D01*
Y4785400D01*
X2119569Y4786577D01*
X2119845Y4787725D01*
X2120296Y4788815D01*
X2120913Y4789822D01*
X2121568Y4790588D01*
X2121680Y4790719D01*
X2121680D01*
Y4790720D01*
X2121811Y4790831D01*
X2122577Y4791486D01*
X2123584Y4792103D01*
X2124675Y4792555D01*
X2125823Y4792830D01*
X2127000Y4792923D01*
D01*
X2127000D01*
X2169477D01*
Y4835400D01*
X2169569Y4836577D01*
X2169845Y4837725D01*
X2170297Y4838816D01*
X2170914Y4839822D01*
X2171680Y4840720D01*
X2172578Y4841486D01*
X2173584Y4842103D01*
X2174675Y4842555D01*
X2175823Y4842831D01*
X2177000Y4842923D01*
X2307000D01*
X2308177Y4842831D01*
D02*
G37*
G36*
X2898177D02*
X2899325Y4842555D01*
X2900416Y4842103D01*
X2901422Y4841486D01*
X2902320Y4840720D01*
X2903086Y4839822D01*
X2903703Y4838816D01*
X2904155Y4837725D01*
X2904431Y4836577D01*
X2904523Y4835400D01*
Y4792926D01*
X2946998D01*
X2948175Y4792833D01*
X2949323Y4792558D01*
X2950413Y4792106D01*
X2951420Y4791489D01*
X2952186Y4790835D01*
X2952317Y4790723D01*
Y4790722D01*
X2952318D01*
X2952429Y4790592D01*
X2953084Y4789825D01*
X2953701Y4788818D01*
X2954153Y4787728D01*
X2954428Y4786580D01*
X2954521Y4785403D01*
X2954523Y4695400D01*
D01*
Y4695400D01*
X2954431Y4694223D01*
X2954155Y4693075D01*
X2953704Y4691985D01*
X2953087Y4690978D01*
X2952432Y4690212D01*
X2952320Y4690081D01*
X2952320D01*
Y4690080D01*
X2952189Y4689969D01*
X2951423Y4689314D01*
X2950416Y4688697D01*
X2949325Y4688245D01*
X2948177Y4687970D01*
X2947000Y4687877D01*
D01*
X2947000D01*
X2904523D01*
Y4645400D01*
X2904431Y4644223D01*
X2904155Y4643075D01*
X2903703Y4641984D01*
X2903086Y4640978D01*
X2902320Y4640080D01*
X2901422Y4639314D01*
X2900416Y4638697D01*
X2899325Y4638245D01*
X2898177Y4637969D01*
X2897000Y4637877D01*
X2767000D01*
X2765823Y4637969D01*
X2764675Y4638245D01*
X2763585Y4638697D01*
X2762578Y4639314D01*
X2761680Y4640080D01*
X2760914Y4640978D01*
X2760297Y4641984D01*
X2759845Y4643075D01*
X2759570Y4644223D01*
X2759477Y4645400D01*
Y4835400D01*
X2759570Y4836577D01*
X2759845Y4837725D01*
X2760297Y4838816D01*
X2760914Y4839822D01*
X2761680Y4840720D01*
X2762578Y4841486D01*
X2763585Y4842103D01*
X2764675Y4842555D01*
X2765823Y4842831D01*
X2767000Y4842923D01*
X2897000D01*
X2898177Y4842831D01*
D02*
G37*
D15*
X1981540Y1977040D02*
D03*
Y1937040D02*
D03*
Y1897040D02*
D03*
Y1857040D02*
D03*
Y1817040D02*
D03*
Y1777040D02*
D03*
Y1737040D02*
D03*
Y1697040D02*
D03*
Y1657040D02*
D03*
Y1617040D02*
D03*
Y1577040D02*
D03*
Y1537040D02*
D03*
Y1497040D02*
D03*
Y1457040D02*
D03*
X2662260D02*
D03*
Y1497040D02*
D03*
Y1537040D02*
D03*
Y1577040D02*
D03*
Y1617040D02*
D03*
Y1657040D02*
D03*
Y1697040D02*
D03*
Y1737040D02*
D03*
Y1777040D02*
D03*
Y1817040D02*
D03*
Y1857040D02*
D03*
Y1897040D02*
D03*
Y1937040D02*
D03*
Y1977040D02*
D03*
D16*
X2061900Y1376680D02*
D03*
X2101900D02*
D03*
X2141900D02*
D03*
X2181900D02*
D03*
X2221900D02*
D03*
X2261900D02*
D03*
X2301900D02*
D03*
X2341900D02*
D03*
X2381900D02*
D03*
X2421900D02*
D03*
X2461900D02*
D03*
X2501900D02*
D03*
X2541900D02*
D03*
X2581900D02*
D03*
Y2057400D02*
D03*
X2541900D02*
D03*
X2501900D02*
D03*
X2461900D02*
D03*
X2421900D02*
D03*
X2381900D02*
D03*
X2341900D02*
D03*
X2301900D02*
D03*
X2261900D02*
D03*
X2221900D02*
D03*
X2181900D02*
D03*
X2141900D02*
D03*
X2101900D02*
D03*
X2061900D02*
D03*
D17*
X2321900Y1717040D02*
D03*
D18*
X1905000Y899299D02*
D03*
Y749300D02*
D03*
D21*
X2126400Y825500D02*
D03*
X2496400D02*
D03*
D22*
X2223701Y482600D02*
D03*
X2373699D02*
D03*
D34*
X1524000Y4660900D02*
D03*
D35*
Y4406900D02*
D03*
D51*
X2922000Y4785400D02*
G03*
X2922000Y4785400I-25000J0D01*
G01*
Y4695400D02*
G03*
X2922000Y4695400I-25000J0D01*
G01*
X2202000Y4785400D02*
G03*
X2202000Y4785400I-25000J0D01*
G01*
Y4695400D02*
G03*
X2202000Y4695400I-25000J0D01*
G01*
D52*
X2667000Y4470400D02*
D03*
X2602000D02*
D03*
X2537000D02*
D03*
X2472000D02*
D03*
X2407000D02*
D03*
D53*
X2637000Y4740400D02*
D03*
X2437000D02*
D03*
D54*
X3098800Y3596600D02*
D03*
D55*
X2868800Y4226600D02*
D03*
X3098800D02*
D03*
X3328800D02*
D03*
D56*
X1600200Y3443300D02*
D03*
Y3643300D02*
D03*
X1295400Y3443300D02*
D03*
Y3643300D02*
D03*
D57*
X2171700Y3149600D02*
D03*
Y3022600D02*
D03*
Y2895600D02*
D03*
Y2768600D02*
D03*
X1450700D02*
D03*
Y2895600D02*
D03*
Y3022600D02*
D03*
Y3149600D02*
D03*
D58*
X2476500Y2901800D02*
D03*
Y3041800D02*
D03*
X2603500Y2901800D02*
D03*
Y3041800D02*
D03*
D59*
X4622800Y368300D02*
D03*
X4368800D02*
D03*
X4622800Y622300D02*
D03*
X4368800D02*
D03*
X4622800Y876300D02*
D03*
X4368800D02*
D03*
X4622800Y1130300D02*
D03*
X4368800D02*
D03*
X4622800Y1384300D02*
D03*
X4368800D02*
D03*
X4622800Y1638300D02*
D03*
X4368800D02*
D03*
X4622800Y1892300D02*
D03*
X4368800D02*
D03*
X4622800Y2146300D02*
D03*
X4368800D02*
D03*
X4622800Y2400300D02*
D03*
X4368800D02*
D03*
X4622800Y2654300D02*
D03*
X4368800D02*
D03*
X4622800Y2908300D02*
D03*
X4368800D02*
D03*
X4622800Y3162300D02*
D03*
X4368800D02*
D03*
X4622800Y3416300D02*
D03*
X4368800D02*
D03*
X4622800Y3670300D02*
D03*
X4368800D02*
D03*
X4622800Y3924300D02*
D03*
X4368800D02*
D03*
X4622800Y4178300D02*
D03*
X4368800D02*
D03*
X4622800Y4432300D02*
D03*
X4368800D02*
D03*
X4622800Y4686300D02*
D03*
X482600Y4622800D02*
D03*
X228600Y4368800D02*
D03*
X482600D02*
D03*
X228600Y4114800D02*
D03*
X482600D02*
D03*
X228600Y3860800D02*
D03*
X482600D02*
D03*
X228600Y3606800D02*
D03*
X482600D02*
D03*
X228600Y3352800D02*
D03*
X482600D02*
D03*
X228600Y3098800D02*
D03*
X482600D02*
D03*
X228600Y2844800D02*
D03*
X482600D02*
D03*
X228600Y2590800D02*
D03*
X482600D02*
D03*
X228600Y2336800D02*
D03*
X482600D02*
D03*
X228600Y2082800D02*
D03*
X482600D02*
D03*
X228600Y1828800D02*
D03*
X482600D02*
D03*
X228600Y1574800D02*
D03*
X482600D02*
D03*
X228600Y1320800D02*
D03*
X482600D02*
D03*
X228600Y1066800D02*
D03*
X482600D02*
D03*
X228600Y812800D02*
D03*
X482600D02*
D03*
X228600Y558800D02*
D03*
X482600D02*
D03*
X228600Y304800D02*
D03*
X482600D02*
D03*
D60*
X4368800Y4686300D02*
D03*
X228600Y4622800D02*
D03*
D61*
X2287000Y4470400D02*
D03*
X2787000D02*
D03*
D62*
X2057400Y1612900D02*
D03*
X1638300Y3111500D02*
D03*
X1625600Y2794000D02*
D03*
Y2971800D02*
D03*
X2844800Y4064000D02*
D03*
X2390644Y1487422D02*
D03*
X2298700Y1968500D02*
D03*
X2374900Y482600D02*
D03*
D63*
X2550117Y1892736D02*
D03*
Y1740336D02*
D03*
X2565400Y1524000D02*
D03*
X2590800Y1612900D02*
D03*
X1981200Y2032000D02*
D03*
X2336800Y1460500D02*
D03*
%TF.MD5,57217da0e0f685f41622d975ab2e4643*%
M02*
