%TF.GenerationSoftware,Altium Limited,Altium Designer,24.10.1 (45)*%
G04 Layer_Color=0*
%FSLAX45Y45*%
%MOMM*%
%TF.SameCoordinates,4DA1E9EC-797C-4A4C-9375-46A5AD340D12*%
%TF.FilePolarity,Positive*%
%TF.FileFunction,Plated,1,4,PTH,Drill*%
%TF.Part,Single*%
G01*
G75*
%TA.AperFunction,ComponentDrill*%
%ADD68C,1.02000*%
%ADD69C,0.85000*%
%ADD70O,0.60000X1.30000*%
%TA.AperFunction,ViaDrill,NotFilled*%
%ADD71C,0.30000*%
%ADD72C,0.20000*%
%ADD73C,0.25000*%
D68*
X4622800Y368300D02*
D03*
X4368800D02*
D03*
X4622800Y622300D02*
D03*
X4368800D02*
D03*
X4622800Y876300D02*
D03*
X4368800D02*
D03*
X4622800Y1130300D02*
D03*
X4368800D02*
D03*
X4622800Y1384300D02*
D03*
X4368800D02*
D03*
X4622800Y1638300D02*
D03*
X4368800D02*
D03*
X4622800Y1892300D02*
D03*
X4368800D02*
D03*
X4622800Y2146300D02*
D03*
X4368800D02*
D03*
X4622800Y2400300D02*
D03*
X4368800D02*
D03*
X4622800Y2654300D02*
D03*
X4368800D02*
D03*
X4622800Y2908300D02*
D03*
X4368800D02*
D03*
X4622800Y3162300D02*
D03*
X4368800D02*
D03*
X4622800Y3416300D02*
D03*
X4368800D02*
D03*
X4622800Y3670300D02*
D03*
X4368800D02*
D03*
X4622800Y3924300D02*
D03*
X4368800D02*
D03*
X4622800Y4178300D02*
D03*
X4368800D02*
D03*
X4622800Y4432300D02*
D03*
X4368800D02*
D03*
X4622800Y4686300D02*
D03*
X4368800D02*
D03*
X1524000Y4660900D02*
D03*
Y4406900D02*
D03*
X228600Y4622800D02*
D03*
X482600D02*
D03*
X228600Y4368800D02*
D03*
X482600D02*
D03*
X228600Y4114800D02*
D03*
X482600D02*
D03*
X228600Y3860800D02*
D03*
X482600D02*
D03*
X228600Y3606800D02*
D03*
X482600D02*
D03*
X228600Y3352800D02*
D03*
X482600D02*
D03*
X228600Y3098800D02*
D03*
X482600D02*
D03*
X228600Y2844800D02*
D03*
X482600D02*
D03*
X228600Y2590800D02*
D03*
X482600D02*
D03*
X228600Y2336800D02*
D03*
X482600D02*
D03*
X228600Y2082800D02*
D03*
X482600D02*
D03*
X228600Y1828800D02*
D03*
X482600D02*
D03*
X228600Y1574800D02*
D03*
X482600D02*
D03*
X228600Y1320800D02*
D03*
X482600D02*
D03*
X228600Y1066800D02*
D03*
X482600D02*
D03*
X228600Y812800D02*
D03*
X482600D02*
D03*
X228600Y558800D02*
D03*
X482600D02*
D03*
X228600Y304800D02*
D03*
X482600D02*
D03*
D69*
X2287000Y4470400D02*
D03*
X2787000D02*
D03*
D70*
X2187000Y4740400D02*
D03*
X2887000D02*
D03*
D71*
X2057400Y1612900D02*
D03*
D72*
X1676400Y2641600D02*
D03*
X1638300Y3111500D02*
D03*
X1625600Y2794000D02*
D03*
Y2971800D02*
D03*
X2844800Y4064000D02*
D03*
X2390644Y1487422D02*
D03*
X2298700Y1968500D02*
D03*
X2374900Y482600D02*
D03*
X2298700Y1257300D02*
D03*
D73*
X2550117Y1892736D02*
D03*
Y1740336D02*
D03*
X2565400Y1524000D02*
D03*
X2590800Y1612900D02*
D03*
X2362200Y2146300D02*
D03*
X1981200Y2032000D02*
D03*
X2667000Y2019300D02*
D03*
X2489200Y1701800D02*
D03*
X2336800Y1460500D02*
D03*
X2717800Y1092200D02*
D03*
X2222500Y1905000D02*
D03*
X2260600Y1066800D02*
D03*
X1803400Y2819400D02*
D03*
X1600200Y3443300D02*
D03*
X2032000Y3149600D02*
D03*
X3196413Y3911600D02*
D03*
X3098800Y4229100D02*
D03*
X2400300Y4533900D02*
D03*
X1104900D02*
D03*
X596900Y4622800D02*
D03*
X2895600Y1092200D02*
D03*
X2209800Y1193800D02*
D03*
X2882900Y1526000D02*
D03*
Y1651000D02*
D03*
X3150600Y1930400D02*
D03*
X2273300Y1714500D02*
D03*
X2209800Y1600200D02*
D03*
X2476500Y1549400D02*
D03*
X2413000Y1917700D02*
D03*
X1803399Y3023500D02*
D03*
X2950387Y3911600D02*
D03*
X3356787D02*
D03*
X1117600Y4250513D02*
D03*
X1346200Y2768600D02*
D03*
X2229450Y386750D02*
D03*
X1866900Y1003300D02*
D03*
X2171700Y4394200D02*
D03*
X2908300Y4457700D02*
D03*
X3328800Y4405500D02*
D03*
X2222200Y1447500D02*
D03*
X1524000Y4749800D02*
D03*
X2437000Y4740400D02*
D03*
X2637000D02*
D03*
X4762500Y368300D02*
D03*
Y609600D02*
D03*
X4775200Y876300D02*
D03*
Y1130300D02*
D03*
Y1384300D02*
D03*
Y1638300D02*
D03*
Y1892300D02*
D03*
Y2146300D02*
D03*
Y2400300D02*
D03*
Y2654300D02*
D03*
Y2908300D02*
D03*
Y3162300D02*
D03*
Y3416300D02*
D03*
Y3670300D02*
D03*
X4787900Y3924300D02*
D03*
Y4178300D02*
D03*
X4775200Y4432300D02*
D03*
Y4686300D02*
D03*
X76200Y304800D02*
D03*
Y558800D02*
D03*
X63500Y812800D02*
D03*
Y1066800D02*
D03*
X76200Y1320800D02*
D03*
Y1574800D02*
D03*
Y1828800D02*
D03*
Y2082800D02*
D03*
Y2336800D02*
D03*
Y2590800D02*
D03*
Y2844800D02*
D03*
Y3098800D02*
D03*
Y3352800D02*
D03*
Y3606800D02*
D03*
Y3860800D02*
D03*
Y4114800D02*
D03*
X88900Y4381500D02*
D03*
Y4622800D02*
D03*
%TF.MD5,e70819c969b99bb7860007abdc9a4320*%
M02*
