%TF.GenerationSoftware,Altium Limited,Altium Designer,24.10.1 (45)*%
G04 Layer_Color=128*
%FSLAX45Y45*%
%MOMM*%
%TF.SameCoordinates,4DA1E9EC-797C-4A4C-9375-46A5AD340D12*%
%TF.FilePolarity,Positive*%
%TF.FileFunction,Paste,Bot*%
%TF.Part,Single*%
G01*
G75*
%TA.AperFunction,SMDPad,CuDef*%
%ADD38R,1.20000X1.45000*%
%ADD39R,0.80000X0.90000*%
%ADD40R,0.90000X0.80000*%
%ADD41R,1.01213X1.20840*%
%ADD42R,1.20840X1.01213*%
%ADD43R,1.20620X0.95620*%
%ADD44R,0.52000X0.52000*%
%ADD45R,0.52000X0.52000*%
D38*
X2198700Y698500D02*
D03*
X2398700D02*
D03*
D39*
X3150600Y1930400D02*
D03*
X3275600D02*
D03*
D40*
X2882900Y1526000D02*
D03*
Y1651000D02*
D03*
D41*
X1117600Y4410887D02*
D03*
Y4250513D02*
D03*
D42*
X3356787Y3911600D02*
D03*
X3196413D02*
D03*
X2950387D02*
D03*
X2790013D02*
D03*
D43*
X1803399Y3023500D02*
D03*
Y2818500D02*
D03*
D44*
X2106300Y1828800D02*
D03*
X2186300D02*
D03*
X2271400Y1600200D02*
D03*
X2351400D02*
D03*
X2271400Y1765300D02*
D03*
X2351400D02*
D03*
X2846700Y1155700D02*
D03*
X2766700D02*
D03*
X2474600Y1447800D02*
D03*
X2554600D02*
D03*
X2474600Y1612900D02*
D03*
X2554600D02*
D03*
X2474600Y1778000D02*
D03*
X2554600D02*
D03*
X2474600Y1917700D02*
D03*
X2554600D02*
D03*
D45*
X2260600Y1195700D02*
D03*
Y1115700D02*
D03*
%TF.MD5,6536a4f48bedddf787be0463b5c65a5d*%
M02*
