%TF.GenerationSoftware,Altium Limited,Altium Designer,24.10.1 (45)*%
G04 Layer_Color=16711935*
%FSLAX45Y45*%
%MOMM*%
%TF.SameCoordinates,4DA1E9EC-797C-4A4C-9375-46A5AD340D12*%
%TF.FilePolarity,Negative*%
%TF.FileFunction,Soldermask,Bot*%
%TF.Part,Single*%
G01*
G75*
%TA.AperFunction,ComponentPad*%
%ADD34C,1.57000*%
%ADD35R,1.57000X1.57000*%
%TA.AperFunction,SMDPad,CuDef*%
%ADD41R,1.01213X1.20840*%
%ADD42R,1.20840X1.01213*%
%ADD43R,1.20620X0.95620*%
%ADD44R,0.52000X0.52000*%
%ADD45R,0.52000X0.52000*%
%TA.AperFunction,ComponentPad*%
%ADD59C,1.52000*%
%ADD60R,1.52000X1.52000*%
%ADD61C,1.60000*%
%TA.AperFunction,ViaPad*%
%ADD62C,0.60000*%
%ADD63C,0.65000*%
%TA.AperFunction,SMDPad,CuDef*%
%ADD64R,1.35000X1.60000*%
%ADD65R,0.95000X1.05000*%
%ADD66R,1.05000X0.95000*%
D34*
X1524000Y4660900D02*
D03*
D35*
Y4406900D02*
D03*
D41*
X1117600Y4410887D02*
D03*
Y4250513D02*
D03*
D42*
X3356787Y3911600D02*
D03*
X3196413D02*
D03*
X2950387D02*
D03*
X2790013D02*
D03*
D43*
X1803399Y3023500D02*
D03*
Y2818500D02*
D03*
D44*
X2106300Y1828800D02*
D03*
X2186300D02*
D03*
X2271400Y1600200D02*
D03*
X2351400D02*
D03*
X2271400Y1765300D02*
D03*
X2351400D02*
D03*
X2846700Y1155700D02*
D03*
X2766700D02*
D03*
X2474600Y1447800D02*
D03*
X2554600D02*
D03*
X2474600Y1612900D02*
D03*
X2554600D02*
D03*
X2474600Y1778000D02*
D03*
X2554600D02*
D03*
X2474600Y1917700D02*
D03*
X2554600D02*
D03*
D45*
X2260600Y1195700D02*
D03*
Y1115700D02*
D03*
D59*
X4622800Y368300D02*
D03*
X4368800D02*
D03*
X4622800Y622300D02*
D03*
X4368800D02*
D03*
X4622800Y876300D02*
D03*
X4368800D02*
D03*
X4622800Y1130300D02*
D03*
X4368800D02*
D03*
X4622800Y1384300D02*
D03*
X4368800D02*
D03*
X4622800Y1638300D02*
D03*
X4368800D02*
D03*
X4622800Y1892300D02*
D03*
X4368800D02*
D03*
X4622800Y2146300D02*
D03*
X4368800D02*
D03*
X4622800Y2400300D02*
D03*
X4368800D02*
D03*
X4622800Y2654300D02*
D03*
X4368800D02*
D03*
X4622800Y2908300D02*
D03*
X4368800D02*
D03*
X4622800Y3162300D02*
D03*
X4368800D02*
D03*
X4622800Y3416300D02*
D03*
X4368800D02*
D03*
X4622800Y3670300D02*
D03*
X4368800D02*
D03*
X4622800Y3924300D02*
D03*
X4368800D02*
D03*
X4622800Y4178300D02*
D03*
X4368800D02*
D03*
X4622800Y4432300D02*
D03*
X4368800D02*
D03*
X4622800Y4686300D02*
D03*
X482600Y4622800D02*
D03*
X228600Y4368800D02*
D03*
X482600D02*
D03*
X228600Y4114800D02*
D03*
X482600D02*
D03*
X228600Y3860800D02*
D03*
X482600D02*
D03*
X228600Y3606800D02*
D03*
X482600D02*
D03*
X228600Y3352800D02*
D03*
X482600D02*
D03*
X228600Y3098800D02*
D03*
X482600D02*
D03*
X228600Y2844800D02*
D03*
X482600D02*
D03*
X228600Y2590800D02*
D03*
X482600D02*
D03*
X228600Y2336800D02*
D03*
X482600D02*
D03*
X228600Y2082800D02*
D03*
X482600D02*
D03*
X228600Y1828800D02*
D03*
X482600D02*
D03*
X228600Y1574800D02*
D03*
X482600D02*
D03*
X228600Y1320800D02*
D03*
X482600D02*
D03*
X228600Y1066800D02*
D03*
X482600D02*
D03*
X228600Y812800D02*
D03*
X482600D02*
D03*
X228600Y558800D02*
D03*
X482600D02*
D03*
X228600Y304800D02*
D03*
X482600D02*
D03*
D60*
X4368800Y4686300D02*
D03*
X228600Y4622800D02*
D03*
D61*
X2287000Y4470400D02*
D03*
X2787000D02*
D03*
D62*
X2057400Y1612900D02*
D03*
X1638300Y3111500D02*
D03*
X1625600Y2794000D02*
D03*
Y2971800D02*
D03*
X2844800Y4064000D02*
D03*
X2390644Y1487422D02*
D03*
X2298700Y1968500D02*
D03*
X2374900Y482600D02*
D03*
D63*
X2550117Y1892736D02*
D03*
Y1740336D02*
D03*
X2565400Y1524000D02*
D03*
X2590800Y1612900D02*
D03*
X1981200Y2032000D02*
D03*
X2336800Y1460500D02*
D03*
D64*
X2198700Y698500D02*
D03*
X2398700D02*
D03*
D65*
X3150600Y1930400D02*
D03*
X3275600D02*
D03*
D66*
X2882900Y1526000D02*
D03*
Y1651000D02*
D03*
%TF.MD5,06659c8492bce13c21b6086bb0d9e3f2*%
M02*
