%TF.GenerationSoftware,Altium Limited,Altium Designer,24.10.1 (45)*%
G04 Layer_Physical_Order=4*
G04 Layer_Color=16711680*
%FSLAX45Y45*%
%MOMM*%
%TF.SameCoordinates,4DA1E9EC-797C-4A4C-9375-46A5AD340D12*%
%TF.FilePolarity,Positive*%
%TF.FileFunction,Copper,L4,Bot,Signal*%
%TF.Part,Single*%
G01*
G75*
%TA.AperFunction,Conductor*%
%ADD25C,0.25400*%
%ADD26C,0.25000*%
%ADD27C,0.20000*%
%ADD28C,0.50000*%
%ADD29C,0.75000*%
%TA.AperFunction,ComponentPad*%
%ADD31C,1.37000*%
%ADD32R,1.37000X1.37000*%
%ADD33C,1.45000*%
%ADD34C,1.57000*%
%ADD35R,1.57000X1.57000*%
%TA.AperFunction,ViaPad*%
%ADD36C,0.45000*%
%ADD37C,0.50000*%
%TA.AperFunction,SMDPad,CuDef*%
%ADD38R,1.20000X1.45000*%
%ADD39R,0.80000X0.90000*%
%ADD40R,0.90000X0.80000*%
%ADD41R,1.01213X1.20840*%
%ADD42R,1.20840X1.01213*%
%ADD43R,1.20620X0.95620*%
%ADD44R,0.52000X0.52000*%
%ADD45R,0.52000X0.52000*%
G36*
X4640141Y5063332D02*
X4682655Y5045722D01*
X4720916Y5020157D01*
X4753456Y4987617D01*
X4779022Y4949355D01*
X4796632Y4906841D01*
X4805609Y4861709D01*
Y4838700D01*
Y25400D01*
Y2391D01*
X4796632Y-42741D01*
X4779022Y-85256D01*
X4753457Y-123516D01*
X4720917Y-156056D01*
X4682655Y-181622D01*
X4640140Y-199232D01*
X4595009Y-208209D01*
X230991D01*
X185859Y-199232D01*
X143344Y-181622D01*
X105084Y-156057D01*
X72544Y-123518D01*
X46978Y-85256D01*
X29368Y-42741D01*
X20391Y2391D01*
Y25400D01*
Y4838700D01*
Y4861709D01*
X29368Y4906840D01*
X46978Y4949355D01*
X72543Y4987616D01*
X105082Y5020156D01*
X143344Y5045722D01*
X185859Y5063332D01*
X230991Y5072309D01*
X4595009D01*
X4640141Y5063332D01*
D02*
G37*
%LPC*%
G36*
X2892080Y4815336D02*
Y4745480D01*
X2927947D01*
Y4775400D01*
X2924830Y4791070D01*
X2915954Y4804354D01*
X2902670Y4813230D01*
X2892080Y4815336D01*
D02*
G37*
G36*
X2192080D02*
Y4745480D01*
X2227947D01*
Y4775400D01*
X2224830Y4791070D01*
X2215954Y4804354D01*
X2202670Y4813230D01*
X2192080Y4815336D01*
D02*
G37*
G36*
X2181920D02*
X2171330Y4813230D01*
X2158046Y4804354D01*
X2149170Y4791070D01*
X2146053Y4775400D01*
Y4745480D01*
X2181920D01*
Y4815336D01*
D02*
G37*
G36*
X2881920D02*
X2871330Y4813230D01*
X2858046Y4804354D01*
X2849170Y4791070D01*
X2846053Y4775400D01*
Y4745480D01*
X2881920D01*
Y4815336D01*
D02*
G37*
G36*
X4633156Y4764960D02*
X4627880D01*
Y4691380D01*
X4701460D01*
Y4696656D01*
X4696099Y4716662D01*
X4685743Y4734598D01*
X4671098Y4749243D01*
X4653162Y4759599D01*
X4633156Y4764960D01*
D02*
G37*
G36*
X4617720D02*
X4612444D01*
X4592438Y4759599D01*
X4574502Y4749243D01*
X4559857Y4734598D01*
X4549501Y4716662D01*
X4544140Y4696656D01*
Y4691380D01*
X4617720D01*
Y4764960D01*
D02*
G37*
G36*
X1535672Y4749560D02*
X1529080D01*
Y4665980D01*
X1612660D01*
Y4672572D01*
X1606618Y4695121D01*
X1594946Y4715339D01*
X1578439Y4731846D01*
X1558221Y4743518D01*
X1535672Y4749560D01*
D02*
G37*
G36*
X1518920D02*
X1512328D01*
X1489779Y4743518D01*
X1469561Y4731846D01*
X1453054Y4715339D01*
X1441382Y4695121D01*
X1435340Y4672572D01*
Y4665980D01*
X1518920D01*
Y4749560D01*
D02*
G37*
G36*
X2927947Y4735320D02*
X2892080D01*
Y4665464D01*
X2902670Y4667570D01*
X2915954Y4676446D01*
X2924830Y4689730D01*
X2927947Y4705400D01*
Y4735320D01*
D02*
G37*
G36*
X2227947D02*
X2192080D01*
Y4665464D01*
X2202670Y4667570D01*
X2215954Y4676446D01*
X2224830Y4689730D01*
X2227947Y4705400D01*
Y4735320D01*
D02*
G37*
G36*
X2881920D02*
X2846053D01*
Y4705400D01*
X2849170Y4689730D01*
X2858046Y4676446D01*
X2871330Y4667570D01*
X2881920Y4665464D01*
Y4735320D01*
D02*
G37*
G36*
X2181920D02*
X2146053D01*
Y4705400D01*
X2149170Y4689730D01*
X2158046Y4676446D01*
X2171330Y4667570D01*
X2181920Y4665464D01*
Y4735320D01*
D02*
G37*
G36*
X307260Y4701460D02*
X233680D01*
Y4627880D01*
X307260D01*
Y4701460D01*
D02*
G37*
G36*
X223520D02*
X149940D01*
Y4627880D01*
X223520D01*
Y4701460D01*
D02*
G37*
G36*
X4701460Y4681220D02*
X4627880D01*
Y4607640D01*
X4633156D01*
X4653162Y4613001D01*
X4671098Y4623357D01*
X4685743Y4638002D01*
X4696099Y4655938D01*
X4701460Y4675944D01*
Y4681220D01*
D02*
G37*
G36*
X4617720D02*
X4544140D01*
Y4675944D01*
X4549501Y4655938D01*
X4559857Y4638002D01*
X4574502Y4623357D01*
X4592438Y4613001D01*
X4612444Y4607640D01*
X4617720D01*
Y4681220D01*
D02*
G37*
G36*
X4447460Y4764960D02*
X4290140D01*
Y4607640D01*
X4447460D01*
Y4764960D01*
D02*
G37*
G36*
X492956Y4701460D02*
X472244D01*
X452238Y4696099D01*
X434302Y4685743D01*
X419657Y4671098D01*
X409301Y4653162D01*
X403940Y4633156D01*
Y4612444D01*
X409301Y4592438D01*
X419657Y4574502D01*
X434302Y4559857D01*
X452238Y4549501D01*
X472244Y4544140D01*
X492956D01*
X512962Y4549501D01*
X530898Y4559857D01*
X545543Y4574502D01*
X552731Y4586951D01*
X584932D01*
X589401Y4585100D01*
X604399D01*
X618255Y4590839D01*
X628861Y4601445D01*
X634600Y4615301D01*
Y4630299D01*
X628861Y4644155D01*
X618255Y4654761D01*
X604399Y4660500D01*
X589401D01*
X584932Y4658649D01*
X552731D01*
X545543Y4671098D01*
X530898Y4685743D01*
X512962Y4696099D01*
X492956Y4701460D01*
D02*
G37*
G36*
X1612660Y4655820D02*
X1529080D01*
Y4572240D01*
X1535672D01*
X1558221Y4578282D01*
X1578439Y4589954D01*
X1594946Y4606461D01*
X1606618Y4626679D01*
X1612660Y4649228D01*
Y4655820D01*
D02*
G37*
G36*
X1518920D02*
X1435340D01*
Y4649228D01*
X1441382Y4626679D01*
X1453054Y4606461D01*
X1469561Y4589954D01*
X1489779Y4578282D01*
X1512328Y4572240D01*
X1518920D01*
Y4655820D01*
D02*
G37*
G36*
X307260Y4617720D02*
X233680D01*
Y4544140D01*
X307260D01*
Y4617720D01*
D02*
G37*
G36*
X223520D02*
X149940D01*
Y4544140D01*
X223520D01*
Y4617720D01*
D02*
G37*
G36*
X2797882Y4553060D02*
X2792080D01*
Y4475480D01*
X2869660D01*
Y4481282D01*
X2864027Y4502305D01*
X2853144Y4521154D01*
X2837754Y4536544D01*
X2818905Y4547427D01*
X2797882Y4553060D01*
D02*
G37*
G36*
X2781920D02*
X2776118D01*
X2755095Y4547427D01*
X2736246Y4536544D01*
X2720856Y4521154D01*
X2709973Y4502305D01*
X2704340Y4481282D01*
Y4475480D01*
X2781920D01*
Y4553060D01*
D02*
G37*
G36*
X2297882D02*
X2292080D01*
Y4475480D01*
X2369660D01*
Y4481282D01*
X2364027Y4502305D01*
X2353144Y4521154D01*
X2337754Y4536544D01*
X2318905Y4547427D01*
X2297882Y4553060D01*
D02*
G37*
G36*
X2281920D02*
X2276118D01*
X2255095Y4547427D01*
X2236246Y4536544D01*
X2220856Y4521154D01*
X2209973Y4502305D01*
X2204340Y4481282D01*
Y4475480D01*
X2281920D01*
Y4553060D01*
D02*
G37*
G36*
X4633156Y4510960D02*
X4627880D01*
Y4437380D01*
X4701460D01*
Y4442656D01*
X4696099Y4462662D01*
X4685743Y4480598D01*
X4671098Y4495243D01*
X4653162Y4505599D01*
X4633156Y4510960D01*
D02*
G37*
G36*
X4617720D02*
X4612444D01*
X4592438Y4505599D01*
X4574502Y4495243D01*
X4559857Y4480598D01*
X4549501Y4462662D01*
X4544140Y4442656D01*
Y4437380D01*
X4617720D01*
Y4510960D01*
D02*
G37*
G36*
X2869660Y4465320D02*
X2792080D01*
Y4387740D01*
X2797882D01*
X2818905Y4393373D01*
X2837754Y4404256D01*
X2853144Y4419646D01*
X2864027Y4438495D01*
X2869660Y4459518D01*
Y4465320D01*
D02*
G37*
G36*
X2781920D02*
X2704340D01*
Y4459518D01*
X2709973Y4438495D01*
X2720856Y4419646D01*
X2736246Y4404256D01*
X2755095Y4393373D01*
X2776118Y4387740D01*
X2781920D01*
Y4465320D01*
D02*
G37*
G36*
X2369660D02*
X2292080D01*
Y4387740D01*
X2297882D01*
X2318905Y4393373D01*
X2337754Y4404256D01*
X2353144Y4419646D01*
X2364027Y4438495D01*
X2369660Y4459518D01*
Y4465320D01*
D02*
G37*
G36*
X2281920D02*
X2204340D01*
Y4459518D01*
X2209973Y4438495D01*
X2220856Y4419646D01*
X2236246Y4404256D01*
X2255095Y4393373D01*
X2276118Y4387740D01*
X2281920D01*
Y4465320D01*
D02*
G37*
G36*
X238956Y4447460D02*
X233680D01*
Y4373880D01*
X307260D01*
Y4379156D01*
X301899Y4399162D01*
X291543Y4417098D01*
X276898Y4431743D01*
X258962Y4442099D01*
X238956Y4447460D01*
D02*
G37*
G36*
X223520D02*
X218244D01*
X198238Y4442099D01*
X180302Y4431743D01*
X165657Y4417098D01*
X155301Y4399162D01*
X149940Y4379156D01*
Y4373880D01*
X223520D01*
Y4447460D01*
D02*
G37*
G36*
X4701460Y4427220D02*
X4627880D01*
Y4353640D01*
X4633156D01*
X4653162Y4359001D01*
X4671098Y4369357D01*
X4685743Y4384002D01*
X4696099Y4401938D01*
X4701460Y4421944D01*
Y4427220D01*
D02*
G37*
G36*
X4617720D02*
X4544140D01*
Y4421944D01*
X4549501Y4401938D01*
X4559857Y4384002D01*
X4574502Y4369357D01*
X4592438Y4359001D01*
X4612444Y4353640D01*
X4617720D01*
Y4427220D01*
D02*
G37*
G36*
X4379156Y4510960D02*
X4358444D01*
X4338438Y4505599D01*
X4320502Y4495243D01*
X4305857Y4480598D01*
X4295501Y4462662D01*
X4290140Y4442656D01*
Y4421944D01*
X4295501Y4401938D01*
X4305857Y4384002D01*
X4320502Y4369357D01*
X4338438Y4359001D01*
X4358444Y4353640D01*
X4379156D01*
X4399162Y4359001D01*
X4417098Y4369357D01*
X4431743Y4384002D01*
X4442099Y4401938D01*
X4447460Y4421944D01*
Y4442656D01*
X4442099Y4462662D01*
X4431743Y4480598D01*
X4417098Y4495243D01*
X4399162Y4505599D01*
X4379156Y4510960D01*
D02*
G37*
G36*
X1112399Y4571600D02*
X1097401D01*
X1083545Y4565861D01*
X1072939Y4555255D01*
X1067200Y4541399D01*
Y4526401D01*
X1072939Y4512545D01*
X1081751Y4503733D01*
Y4481466D01*
X1056834D01*
Y4340307D01*
X1178366D01*
Y4481466D01*
X1153449D01*
Y4521200D01*
X1150720Y4534919D01*
X1142949Y4546549D01*
X1138712Y4550786D01*
X1136861Y4555255D01*
X1126255Y4565861D01*
X1112399Y4571600D01*
D02*
G37*
G36*
X1612660Y4495560D02*
X1435340D01*
Y4318240D01*
X1612660D01*
Y4495560D01*
D02*
G37*
G36*
X492956Y4447460D02*
X472244D01*
X452238Y4442099D01*
X434302Y4431743D01*
X419657Y4417098D01*
X409301Y4399162D01*
X403940Y4379156D01*
Y4358444D01*
X409301Y4338438D01*
X419657Y4320502D01*
X434302Y4305857D01*
X452238Y4295501D01*
X472244Y4290140D01*
X492956D01*
X512962Y4295501D01*
X530898Y4305857D01*
X545543Y4320502D01*
X555899Y4338438D01*
X561260Y4358444D01*
Y4379156D01*
X555899Y4399162D01*
X545543Y4417098D01*
X530898Y4431743D01*
X512962Y4442099D01*
X492956Y4447460D01*
D02*
G37*
G36*
X307260Y4363720D02*
X233680D01*
Y4290140D01*
X238956D01*
X258962Y4295501D01*
X276898Y4305857D01*
X291543Y4320502D01*
X301899Y4338438D01*
X307260Y4358444D01*
Y4363720D01*
D02*
G37*
G36*
X223520D02*
X149940D01*
Y4358444D01*
X155301Y4338438D01*
X165657Y4320502D01*
X180302Y4305857D01*
X198238Y4295501D01*
X218244Y4290140D01*
X223520D01*
Y4363720D01*
D02*
G37*
G36*
X1178366Y4321093D02*
X1122680D01*
Y4255593D01*
X1178366D01*
Y4321093D01*
D02*
G37*
G36*
X1112520D02*
X1056834D01*
Y4255593D01*
X1112520D01*
Y4321093D01*
D02*
G37*
G36*
X3106299Y4266800D02*
X3091301D01*
X3077445Y4261061D01*
X3066839Y4250455D01*
X3061100Y4236599D01*
Y4221601D01*
X3066839Y4207745D01*
X3077445Y4197139D01*
X3091301Y4191400D01*
X3106299D01*
X3120155Y4197139D01*
X3130761Y4207745D01*
X3136500Y4221601D01*
Y4236599D01*
X3130761Y4250455D01*
X3120155Y4261061D01*
X3106299Y4266800D01*
D02*
G37*
G36*
X4633156Y4256960D02*
X4627880D01*
Y4183380D01*
X4701460D01*
Y4188656D01*
X4696099Y4208662D01*
X4685743Y4226598D01*
X4671098Y4241243D01*
X4653162Y4251599D01*
X4633156Y4256960D01*
D02*
G37*
G36*
X4617720D02*
X4612444D01*
X4592438Y4251599D01*
X4574502Y4241243D01*
X4559857Y4226598D01*
X4549501Y4208662D01*
X4544140Y4188656D01*
Y4183380D01*
X4617720D01*
Y4256960D01*
D02*
G37*
G36*
X1178366Y4245433D02*
X1122680D01*
Y4179933D01*
X1178366D01*
Y4245433D01*
D02*
G37*
G36*
X1112520D02*
X1056834D01*
Y4179933D01*
X1112520D01*
Y4245433D01*
D02*
G37*
G36*
X238956Y4193460D02*
X233680D01*
Y4119880D01*
X307260D01*
Y4125156D01*
X301899Y4145162D01*
X291543Y4163098D01*
X276898Y4177743D01*
X258962Y4188099D01*
X238956Y4193460D01*
D02*
G37*
G36*
X223520D02*
X218244D01*
X198238Y4188099D01*
X180302Y4177743D01*
X165657Y4163098D01*
X155301Y4145162D01*
X149940Y4125156D01*
Y4119880D01*
X223520D01*
Y4193460D01*
D02*
G37*
G36*
X4701460Y4173220D02*
X4627880D01*
Y4099640D01*
X4633156D01*
X4653162Y4105001D01*
X4671098Y4115357D01*
X4685743Y4130002D01*
X4696099Y4147938D01*
X4701460Y4167944D01*
Y4173220D01*
D02*
G37*
G36*
X4617720D02*
X4544140D01*
Y4167944D01*
X4549501Y4147938D01*
X4559857Y4130002D01*
X4574502Y4115357D01*
X4592438Y4105001D01*
X4612444Y4099640D01*
X4617720D01*
Y4173220D01*
D02*
G37*
G36*
X4379156Y4256960D02*
X4358444D01*
X4338438Y4251599D01*
X4320502Y4241243D01*
X4305857Y4226598D01*
X4295501Y4208662D01*
X4290140Y4188656D01*
Y4167944D01*
X4295501Y4147938D01*
X4305857Y4130002D01*
X4320502Y4115357D01*
X4338438Y4105001D01*
X4358444Y4099640D01*
X4379156D01*
X4399162Y4105001D01*
X4417098Y4115357D01*
X4431743Y4130002D01*
X4442099Y4147938D01*
X4447460Y4167944D01*
Y4188656D01*
X4442099Y4208662D01*
X4431743Y4226598D01*
X4417098Y4241243D01*
X4399162Y4251599D01*
X4379156Y4256960D01*
D02*
G37*
G36*
X492956Y4193460D02*
X472244D01*
X452238Y4188099D01*
X434302Y4177743D01*
X419657Y4163098D01*
X409301Y4145162D01*
X403940Y4125156D01*
Y4104444D01*
X409301Y4084438D01*
X419657Y4066502D01*
X434302Y4051857D01*
X452238Y4041501D01*
X472244Y4036140D01*
X492956D01*
X512962Y4041501D01*
X530898Y4051857D01*
X545543Y4066502D01*
X555899Y4084438D01*
X561260Y4104444D01*
Y4125156D01*
X555899Y4145162D01*
X545543Y4163098D01*
X530898Y4177743D01*
X512962Y4188099D01*
X492956Y4193460D01*
D02*
G37*
G36*
X307260Y4109720D02*
X233680D01*
Y4036140D01*
X238956D01*
X258962Y4041501D01*
X276898Y4051857D01*
X291543Y4066502D01*
X301899Y4084438D01*
X307260Y4104444D01*
Y4109720D01*
D02*
G37*
G36*
X223520D02*
X149940D01*
Y4104444D01*
X155301Y4084438D01*
X165657Y4066502D01*
X180302Y4051857D01*
X198238Y4041501D01*
X218244Y4036140D01*
X223520D01*
Y4109720D01*
D02*
G37*
G36*
X4633156Y4002960D02*
X4627880D01*
Y3929380D01*
X4701460D01*
Y3934656D01*
X4696099Y3954662D01*
X4685743Y3972598D01*
X4671098Y3987243D01*
X4653162Y3997599D01*
X4633156Y4002960D01*
D02*
G37*
G36*
X4617720D02*
X4612444D01*
X4592438Y3997599D01*
X4574502Y3987243D01*
X4559857Y3972598D01*
X4549501Y3954662D01*
X4544140Y3934656D01*
Y3929380D01*
X4617720D01*
Y4002960D01*
D02*
G37*
G36*
X3020966Y3972366D02*
X2955467D01*
Y3916680D01*
X3020966D01*
Y3972366D01*
D02*
G37*
G36*
X3427366D02*
X3361867D01*
Y3916680D01*
X3427366D01*
Y3972366D01*
D02*
G37*
G36*
X2945307D02*
X2879807D01*
Y3916680D01*
X2945307D01*
Y3972366D01*
D02*
G37*
G36*
X3351707D02*
X3286207D01*
Y3916680D01*
X3351707D01*
Y3972366D01*
D02*
G37*
G36*
X238956Y3939460D02*
X233680D01*
Y3865880D01*
X307260D01*
Y3871156D01*
X301899Y3891162D01*
X291543Y3909098D01*
X276898Y3923743D01*
X258962Y3934099D01*
X238956Y3939460D01*
D02*
G37*
G36*
X223520D02*
X218244D01*
X198238Y3934099D01*
X180302Y3923743D01*
X165657Y3909098D01*
X155301Y3891162D01*
X149940Y3871156D01*
Y3865880D01*
X223520D01*
Y3939460D01*
D02*
G37*
G36*
X3427366Y3906520D02*
X3361867D01*
Y3850834D01*
X3427366D01*
Y3906520D01*
D02*
G37*
G36*
X3351707D02*
X3286207D01*
Y3850834D01*
X3351707D01*
Y3906520D01*
D02*
G37*
G36*
X3266993Y3972366D02*
X3125833D01*
Y3850834D01*
X3266993D01*
Y3972366D01*
D02*
G37*
G36*
X3020966Y3906520D02*
X2955467D01*
Y3850834D01*
X3020966D01*
Y3906520D01*
D02*
G37*
G36*
X2945307D02*
X2879807D01*
Y3850834D01*
X2945307D01*
Y3906520D01*
D02*
G37*
G36*
X2844800Y4112594D02*
X2826204Y4108895D01*
X2810439Y4098361D01*
X2778572Y4066494D01*
X2768038Y4050729D01*
X2764339Y4032133D01*
Y3972366D01*
X2719433D01*
Y3850834D01*
X2860593D01*
Y3920011D01*
X2861527Y3924707D01*
Y4012005D01*
X2879161Y4029639D01*
X2889695Y4045404D01*
X2893394Y4064000D01*
X2889695Y4082596D01*
X2879161Y4098361D01*
X2863396Y4108895D01*
X2844800Y4112594D01*
D02*
G37*
G36*
X4701460Y3919220D02*
X4627880D01*
Y3845640D01*
X4633156D01*
X4653162Y3851001D01*
X4671098Y3861357D01*
X4685743Y3876002D01*
X4696099Y3893938D01*
X4701460Y3913944D01*
Y3919220D01*
D02*
G37*
G36*
X4617720D02*
X4544140D01*
Y3913944D01*
X4549501Y3893938D01*
X4559857Y3876002D01*
X4574502Y3861357D01*
X4592438Y3851001D01*
X4612444Y3845640D01*
X4617720D01*
Y3919220D01*
D02*
G37*
G36*
X4379156Y4002960D02*
X4358444D01*
X4338438Y3997599D01*
X4320502Y3987243D01*
X4305857Y3972598D01*
X4295501Y3954662D01*
X4290140Y3934656D01*
Y3913944D01*
X4295501Y3893938D01*
X4305857Y3876002D01*
X4320502Y3861357D01*
X4338438Y3851001D01*
X4358444Y3845640D01*
X4379156D01*
X4399162Y3851001D01*
X4417098Y3861357D01*
X4431743Y3876002D01*
X4442099Y3893938D01*
X4447460Y3913944D01*
Y3934656D01*
X4442099Y3954662D01*
X4431743Y3972598D01*
X4417098Y3987243D01*
X4399162Y3997599D01*
X4379156Y4002960D01*
D02*
G37*
G36*
X492956Y3939460D02*
X472244D01*
X452238Y3934099D01*
X434302Y3923743D01*
X419657Y3909098D01*
X409301Y3891162D01*
X403940Y3871156D01*
Y3850444D01*
X409301Y3830438D01*
X419657Y3812502D01*
X434302Y3797857D01*
X452238Y3787501D01*
X472244Y3782140D01*
X492956D01*
X512962Y3787501D01*
X530898Y3797857D01*
X545543Y3812502D01*
X555899Y3830438D01*
X561260Y3850444D01*
Y3871156D01*
X555899Y3891162D01*
X545543Y3909098D01*
X530898Y3923743D01*
X512962Y3934099D01*
X492956Y3939460D01*
D02*
G37*
G36*
X307260Y3855720D02*
X233680D01*
Y3782140D01*
X238956D01*
X258962Y3787501D01*
X276898Y3797857D01*
X291543Y3812502D01*
X301899Y3830438D01*
X307260Y3850444D01*
Y3855720D01*
D02*
G37*
G36*
X223520D02*
X149940D01*
Y3850444D01*
X155301Y3830438D01*
X165657Y3812502D01*
X180302Y3797857D01*
X198238Y3787501D01*
X218244Y3782140D01*
X223520D01*
Y3855720D01*
D02*
G37*
G36*
X4633156Y3748960D02*
X4627880D01*
Y3675380D01*
X4701460D01*
Y3680656D01*
X4696099Y3700662D01*
X4685743Y3718598D01*
X4671098Y3733243D01*
X4653162Y3743599D01*
X4633156Y3748960D01*
D02*
G37*
G36*
X4617720D02*
X4612444D01*
X4592438Y3743599D01*
X4574502Y3733243D01*
X4559857Y3718598D01*
X4549501Y3700662D01*
X4544140Y3680656D01*
Y3675380D01*
X4617720D01*
Y3748960D01*
D02*
G37*
G36*
X238956Y3685460D02*
X233680D01*
Y3611880D01*
X307260D01*
Y3617156D01*
X301899Y3637162D01*
X291543Y3655098D01*
X276898Y3669743D01*
X258962Y3680099D01*
X238956Y3685460D01*
D02*
G37*
G36*
X223520D02*
X218244D01*
X198238Y3680099D01*
X180302Y3669743D01*
X165657Y3655098D01*
X155301Y3637162D01*
X149940Y3617156D01*
Y3611880D01*
X223520D01*
Y3685460D01*
D02*
G37*
G36*
X4701460Y3665220D02*
X4627880D01*
Y3591640D01*
X4633156D01*
X4653162Y3597001D01*
X4671098Y3607357D01*
X4685743Y3622002D01*
X4696099Y3639938D01*
X4701460Y3659944D01*
Y3665220D01*
D02*
G37*
G36*
X4617720D02*
X4544140D01*
Y3659944D01*
X4549501Y3639938D01*
X4559857Y3622002D01*
X4574502Y3607357D01*
X4592438Y3597001D01*
X4612444Y3591640D01*
X4617720D01*
Y3665220D01*
D02*
G37*
G36*
X4379156Y3748960D02*
X4358444D01*
X4338438Y3743599D01*
X4320502Y3733243D01*
X4305857Y3718598D01*
X4295501Y3700662D01*
X4290140Y3680656D01*
Y3659944D01*
X4295501Y3639938D01*
X4305857Y3622002D01*
X4320502Y3607357D01*
X4338438Y3597001D01*
X4358444Y3591640D01*
X4379156D01*
X4399162Y3597001D01*
X4417098Y3607357D01*
X4431743Y3622002D01*
X4442099Y3639938D01*
X4447460Y3659944D01*
Y3680656D01*
X4442099Y3700662D01*
X4431743Y3718598D01*
X4417098Y3733243D01*
X4399162Y3743599D01*
X4379156Y3748960D01*
D02*
G37*
G36*
X492956Y3685460D02*
X472244D01*
X452238Y3680099D01*
X434302Y3669743D01*
X419657Y3655098D01*
X409301Y3637162D01*
X403940Y3617156D01*
Y3596444D01*
X409301Y3576438D01*
X419657Y3558502D01*
X434302Y3543857D01*
X452238Y3533501D01*
X472244Y3528140D01*
X492956D01*
X512962Y3533501D01*
X530898Y3543857D01*
X545543Y3558502D01*
X555899Y3576438D01*
X561260Y3596444D01*
Y3617156D01*
X555899Y3637162D01*
X545543Y3655098D01*
X530898Y3669743D01*
X512962Y3680099D01*
X492956Y3685460D01*
D02*
G37*
G36*
X307260Y3601720D02*
X233680D01*
Y3528140D01*
X238956D01*
X258962Y3533501D01*
X276898Y3543857D01*
X291543Y3558502D01*
X301899Y3576438D01*
X307260Y3596444D01*
Y3601720D01*
D02*
G37*
G36*
X223520D02*
X149940D01*
Y3596444D01*
X155301Y3576438D01*
X165657Y3558502D01*
X180302Y3543857D01*
X198238Y3533501D01*
X218244Y3528140D01*
X223520D01*
Y3601720D01*
D02*
G37*
G36*
X4633156Y3494960D02*
X4627880D01*
Y3421380D01*
X4701460D01*
Y3426656D01*
X4696099Y3446662D01*
X4685743Y3464598D01*
X4671098Y3479243D01*
X4653162Y3489599D01*
X4633156Y3494960D01*
D02*
G37*
G36*
X4617720D02*
X4612444D01*
X4592438Y3489599D01*
X4574502Y3479243D01*
X4559857Y3464598D01*
X4549501Y3446662D01*
X4544140Y3426656D01*
Y3421380D01*
X4617720D01*
Y3494960D01*
D02*
G37*
G36*
X1607699Y3481000D02*
X1592701D01*
X1578845Y3475261D01*
X1568239Y3464655D01*
X1562500Y3450799D01*
Y3435801D01*
X1568239Y3421945D01*
X1578845Y3411339D01*
X1592701Y3405600D01*
X1607699D01*
X1621555Y3411339D01*
X1632161Y3421945D01*
X1637900Y3435801D01*
Y3450799D01*
X1632161Y3464655D01*
X1621555Y3475261D01*
X1607699Y3481000D01*
D02*
G37*
G36*
X238956Y3431460D02*
X233680D01*
Y3357880D01*
X307260D01*
Y3363156D01*
X301899Y3383162D01*
X291543Y3401098D01*
X276898Y3415743D01*
X258962Y3426099D01*
X238956Y3431460D01*
D02*
G37*
G36*
X223520D02*
X218244D01*
X198238Y3426099D01*
X180302Y3415743D01*
X165657Y3401098D01*
X155301Y3383162D01*
X149940Y3363156D01*
Y3357880D01*
X223520D01*
Y3431460D01*
D02*
G37*
G36*
X4701460Y3411220D02*
X4627880D01*
Y3337640D01*
X4633156D01*
X4653162Y3343001D01*
X4671098Y3353357D01*
X4685743Y3368002D01*
X4696099Y3385938D01*
X4701460Y3405944D01*
Y3411220D01*
D02*
G37*
G36*
X4617720D02*
X4544140D01*
Y3405944D01*
X4549501Y3385938D01*
X4559857Y3368002D01*
X4574502Y3353357D01*
X4592438Y3343001D01*
X4612444Y3337640D01*
X4617720D01*
Y3411220D01*
D02*
G37*
G36*
X4379156Y3494960D02*
X4358444D01*
X4338438Y3489599D01*
X4320502Y3479243D01*
X4305857Y3464598D01*
X4295501Y3446662D01*
X4290140Y3426656D01*
Y3405944D01*
X4295501Y3385938D01*
X4305857Y3368002D01*
X4320502Y3353357D01*
X4338438Y3343001D01*
X4358444Y3337640D01*
X4379156D01*
X4399162Y3343001D01*
X4417098Y3353357D01*
X4431743Y3368002D01*
X4442099Y3385938D01*
X4447460Y3405944D01*
Y3426656D01*
X4442099Y3446662D01*
X4431743Y3464598D01*
X4417098Y3479243D01*
X4399162Y3489599D01*
X4379156Y3494960D01*
D02*
G37*
G36*
X492956Y3431460D02*
X472244D01*
X452238Y3426099D01*
X434302Y3415743D01*
X419657Y3401098D01*
X409301Y3383162D01*
X403940Y3363156D01*
Y3342444D01*
X409301Y3322438D01*
X419657Y3304502D01*
X434302Y3289857D01*
X452238Y3279501D01*
X472244Y3274140D01*
X492956D01*
X512962Y3279501D01*
X530898Y3289857D01*
X545543Y3304502D01*
X555899Y3322438D01*
X561260Y3342444D01*
Y3363156D01*
X555899Y3383162D01*
X545543Y3401098D01*
X530898Y3415743D01*
X512962Y3426099D01*
X492956Y3431460D01*
D02*
G37*
G36*
X307260Y3347720D02*
X233680D01*
Y3274140D01*
X238956D01*
X258962Y3279501D01*
X276898Y3289857D01*
X291543Y3304502D01*
X301899Y3322438D01*
X307260Y3342444D01*
Y3347720D01*
D02*
G37*
G36*
X223520D02*
X149940D01*
Y3342444D01*
X155301Y3322438D01*
X165657Y3304502D01*
X180302Y3289857D01*
X198238Y3279501D01*
X218244Y3274140D01*
X223520D01*
Y3347720D01*
D02*
G37*
G36*
X4633156Y3240960D02*
X4627880D01*
Y3167380D01*
X4701460D01*
Y3172656D01*
X4696099Y3192662D01*
X4685743Y3210598D01*
X4671098Y3225243D01*
X4653162Y3235599D01*
X4633156Y3240960D01*
D02*
G37*
G36*
X4617720D02*
X4612444D01*
X4592438Y3235599D01*
X4574502Y3225243D01*
X4559857Y3210598D01*
X4549501Y3192662D01*
X4544140Y3172656D01*
Y3167380D01*
X4617720D01*
Y3240960D01*
D02*
G37*
G36*
X2039499Y3187300D02*
X2024501D01*
X2010645Y3181561D01*
X2000039Y3170955D01*
X1994300Y3157099D01*
Y3142101D01*
X2000039Y3128245D01*
X2010645Y3117639D01*
X2024501Y3111900D01*
X2039499D01*
X2053355Y3117639D01*
X2063961Y3128245D01*
X2069700Y3142101D01*
Y3157099D01*
X2063961Y3170955D01*
X2053355Y3181561D01*
X2039499Y3187300D01*
D02*
G37*
G36*
X238956Y3177460D02*
X233680D01*
Y3103880D01*
X307260D01*
Y3109156D01*
X301899Y3129162D01*
X291543Y3147098D01*
X276898Y3161743D01*
X258962Y3172099D01*
X238956Y3177460D01*
D02*
G37*
G36*
X223520D02*
X218244D01*
X198238Y3172099D01*
X180302Y3161743D01*
X165657Y3147098D01*
X155301Y3129162D01*
X149940Y3109156D01*
Y3103880D01*
X223520D01*
Y3177460D01*
D02*
G37*
G36*
X4701460Y3157220D02*
X4627880D01*
Y3083640D01*
X4633156D01*
X4653162Y3089001D01*
X4671098Y3099357D01*
X4685743Y3114002D01*
X4696099Y3131938D01*
X4701460Y3151944D01*
Y3157220D01*
D02*
G37*
G36*
X4617720D02*
X4544140D01*
Y3151944D01*
X4549501Y3131938D01*
X4559857Y3114002D01*
X4574502Y3099357D01*
X4592438Y3089001D01*
X4612444Y3083640D01*
X4617720D01*
Y3157220D01*
D02*
G37*
G36*
X4379156Y3240960D02*
X4358444D01*
X4338438Y3235599D01*
X4320502Y3225243D01*
X4305857Y3210598D01*
X4295501Y3192662D01*
X4290140Y3172656D01*
Y3151944D01*
X4295501Y3131938D01*
X4305857Y3114002D01*
X4320502Y3099357D01*
X4338438Y3089001D01*
X4358444Y3083640D01*
X4379156D01*
X4399162Y3089001D01*
X4417098Y3099357D01*
X4431743Y3114002D01*
X4442099Y3131938D01*
X4447460Y3151944D01*
Y3172656D01*
X4442099Y3192662D01*
X4431743Y3210598D01*
X4417098Y3225243D01*
X4399162Y3235599D01*
X4379156Y3240960D01*
D02*
G37*
G36*
X1873870Y3081470D02*
X1808479D01*
Y3028580D01*
X1873870D01*
Y3081470D01*
D02*
G37*
G36*
X1798319D02*
X1732929D01*
Y3028580D01*
X1798319D01*
Y3081470D01*
D02*
G37*
G36*
X492956Y3177460D02*
X472244D01*
X452238Y3172099D01*
X434302Y3161743D01*
X419657Y3147098D01*
X409301Y3129162D01*
X403940Y3109156D01*
Y3088444D01*
X409301Y3068438D01*
X419657Y3050502D01*
X434302Y3035857D01*
X452238Y3025501D01*
X472244Y3020140D01*
X492956D01*
X512962Y3025501D01*
X530898Y3035857D01*
X545543Y3050502D01*
X555899Y3068438D01*
X561260Y3088444D01*
Y3109156D01*
X555899Y3129162D01*
X545543Y3147098D01*
X530898Y3161743D01*
X512962Y3172099D01*
X492956Y3177460D01*
D02*
G37*
G36*
X307260Y3093720D02*
X233680D01*
Y3020140D01*
X238956D01*
X258962Y3025501D01*
X276898Y3035857D01*
X291543Y3050502D01*
X301899Y3068438D01*
X307260Y3088444D01*
Y3093720D01*
D02*
G37*
G36*
X223520D02*
X149940D01*
Y3088444D01*
X155301Y3068438D01*
X165657Y3050502D01*
X180302Y3035857D01*
X198238Y3025501D01*
X218244Y3020140D01*
X223520D01*
Y3093720D01*
D02*
G37*
G36*
X1873870Y3018420D02*
X1808479D01*
Y2965530D01*
X1873870D01*
Y3018420D01*
D02*
G37*
G36*
X1798319D02*
X1732929D01*
Y2965530D01*
X1798319D01*
Y3018420D01*
D02*
G37*
G36*
X4633156Y2986960D02*
X4627880D01*
Y2913380D01*
X4701460D01*
Y2918656D01*
X4696099Y2938662D01*
X4685743Y2956598D01*
X4671098Y2971243D01*
X4653162Y2981599D01*
X4633156Y2986960D01*
D02*
G37*
G36*
X4617720D02*
X4612444D01*
X4592438Y2981599D01*
X4574502Y2971243D01*
X4559857Y2956598D01*
X4549501Y2938662D01*
X4544140Y2918656D01*
Y2913380D01*
X4617720D01*
Y2986960D01*
D02*
G37*
G36*
X238956Y2923460D02*
X233680D01*
Y2849880D01*
X307260D01*
Y2855156D01*
X301899Y2875162D01*
X291543Y2893098D01*
X276898Y2907743D01*
X258962Y2918099D01*
X238956Y2923460D01*
D02*
G37*
G36*
X223520D02*
X218244D01*
X198238Y2918099D01*
X180302Y2907743D01*
X165657Y2893098D01*
X155301Y2875162D01*
X149940Y2855156D01*
Y2849880D01*
X223520D01*
Y2923460D01*
D02*
G37*
G36*
X4701460Y2903220D02*
X4627880D01*
Y2829640D01*
X4633156D01*
X4653162Y2835001D01*
X4671098Y2845357D01*
X4685743Y2860002D01*
X4696099Y2877938D01*
X4701460Y2897944D01*
Y2903220D01*
D02*
G37*
G36*
X4617720D02*
X4544140D01*
Y2897944D01*
X4549501Y2877938D01*
X4559857Y2860002D01*
X4574502Y2845357D01*
X4592438Y2835001D01*
X4612444Y2829640D01*
X4617720D01*
Y2903220D01*
D02*
G37*
G36*
X4379156Y2986960D02*
X4358444D01*
X4338438Y2981599D01*
X4320502Y2971243D01*
X4305857Y2956598D01*
X4295501Y2938662D01*
X4290140Y2918656D01*
Y2897944D01*
X4295501Y2877938D01*
X4305857Y2860002D01*
X4320502Y2845357D01*
X4338438Y2835001D01*
X4358444Y2829640D01*
X4379156D01*
X4399162Y2835001D01*
X4417098Y2845357D01*
X4431743Y2860002D01*
X4442099Y2877938D01*
X4447460Y2897944D01*
Y2918656D01*
X4442099Y2938662D01*
X4431743Y2956598D01*
X4417098Y2971243D01*
X4399162Y2981599D01*
X4379156Y2986960D01*
D02*
G37*
G36*
X492956Y2923460D02*
X472244D01*
X452238Y2918099D01*
X434302Y2907743D01*
X419657Y2893098D01*
X409301Y2875162D01*
X403940Y2855156D01*
Y2834444D01*
X409301Y2814438D01*
X419657Y2796502D01*
X434302Y2781857D01*
X452238Y2771501D01*
X472244Y2766140D01*
X492956D01*
X512962Y2771501D01*
X530898Y2781857D01*
X545543Y2796502D01*
X555899Y2814438D01*
X561260Y2834444D01*
Y2855156D01*
X555899Y2875162D01*
X545543Y2893098D01*
X530898Y2907743D01*
X512962Y2918099D01*
X492956Y2923460D01*
D02*
G37*
G36*
X307260Y2839720D02*
X233680D01*
Y2766140D01*
X238956D01*
X258962Y2771501D01*
X276898Y2781857D01*
X291543Y2796502D01*
X301899Y2814438D01*
X307260Y2834444D01*
Y2839720D01*
D02*
G37*
G36*
X223520D02*
X149940D01*
Y2834444D01*
X155301Y2814438D01*
X165657Y2796502D01*
X180302Y2781857D01*
X198238Y2771501D01*
X218244Y2766140D01*
X223520D01*
Y2839720D01*
D02*
G37*
G36*
X1873870Y2876470D02*
X1732929D01*
Y2760530D01*
X1873870D01*
Y2876470D01*
D02*
G37*
G36*
X4633156Y2732960D02*
X4627880D01*
Y2659380D01*
X4701460D01*
Y2664656D01*
X4696099Y2684662D01*
X4685743Y2702598D01*
X4671098Y2717243D01*
X4653162Y2727599D01*
X4633156Y2732960D01*
D02*
G37*
G36*
X4617720D02*
X4612444D01*
X4592438Y2727599D01*
X4574502Y2717243D01*
X4559857Y2702598D01*
X4549501Y2684662D01*
X4544140Y2664656D01*
Y2659380D01*
X4617720D01*
Y2732960D01*
D02*
G37*
G36*
X1645302Y3146700D02*
X1631298D01*
X1618361Y3141341D01*
X1608459Y3131439D01*
X1603100Y3118502D01*
Y3104498D01*
X1608459Y3091561D01*
X1614992Y3085028D01*
Y3026841D01*
X1616766Y3017921D01*
X1617562Y3016731D01*
X1617640Y3015995D01*
X1613308Y3004809D01*
X1605661Y3001641D01*
X1595759Y2991739D01*
X1590400Y2978802D01*
Y2964798D01*
X1595759Y2951861D01*
X1602292Y2945328D01*
Y2820472D01*
X1595759Y2813939D01*
X1590400Y2801002D01*
Y2786998D01*
X1595759Y2774061D01*
X1605661Y2764159D01*
X1618598Y2758800D01*
X1632602D01*
X1642932Y2763079D01*
X1653092Y2758437D01*
Y2668072D01*
X1646559Y2661539D01*
X1641200Y2648602D01*
Y2634598D01*
X1646559Y2621661D01*
X1656461Y2611759D01*
X1669398Y2606400D01*
X1683402D01*
X1696339Y2611759D01*
X1706241Y2621661D01*
X1711600Y2634598D01*
Y2648602D01*
X1706241Y2661539D01*
X1699708Y2668072D01*
Y2988741D01*
X1697934Y2997660D01*
X1692881Y3005222D01*
X1661608Y3036495D01*
Y3085028D01*
X1668141Y3091561D01*
X1673500Y3104498D01*
Y3118502D01*
X1668141Y3131439D01*
X1658239Y3141341D01*
X1645302Y3146700D01*
D02*
G37*
G36*
X238956Y2669460D02*
X233680D01*
Y2595880D01*
X307260D01*
Y2601156D01*
X301899Y2621162D01*
X291543Y2639098D01*
X276898Y2653743D01*
X258962Y2664099D01*
X238956Y2669460D01*
D02*
G37*
G36*
X223520D02*
X218244D01*
X198238Y2664099D01*
X180302Y2653743D01*
X165657Y2639098D01*
X155301Y2621162D01*
X149940Y2601156D01*
Y2595880D01*
X223520D01*
Y2669460D01*
D02*
G37*
G36*
X4701460Y2649220D02*
X4627880D01*
Y2575640D01*
X4633156D01*
X4653162Y2581001D01*
X4671098Y2591357D01*
X4685743Y2606002D01*
X4696099Y2623938D01*
X4701460Y2643944D01*
Y2649220D01*
D02*
G37*
G36*
X4617720D02*
X4544140D01*
Y2643944D01*
X4549501Y2623938D01*
X4559857Y2606002D01*
X4574502Y2591357D01*
X4592438Y2581001D01*
X4612444Y2575640D01*
X4617720D01*
Y2649220D01*
D02*
G37*
G36*
X4379156Y2732960D02*
X4358444D01*
X4338438Y2727599D01*
X4320502Y2717243D01*
X4305857Y2702598D01*
X4295501Y2684662D01*
X4290140Y2664656D01*
Y2643944D01*
X4295501Y2623938D01*
X4305857Y2606002D01*
X4320502Y2591357D01*
X4338438Y2581001D01*
X4358444Y2575640D01*
X4379156D01*
X4399162Y2581001D01*
X4417098Y2591357D01*
X4431743Y2606002D01*
X4442099Y2623938D01*
X4447460Y2643944D01*
Y2664656D01*
X4442099Y2684662D01*
X4431743Y2702598D01*
X4417098Y2717243D01*
X4399162Y2727599D01*
X4379156Y2732960D01*
D02*
G37*
G36*
X492956Y2669460D02*
X472244D01*
X452238Y2664099D01*
X434302Y2653743D01*
X419657Y2639098D01*
X409301Y2621162D01*
X403940Y2601156D01*
Y2580444D01*
X409301Y2560438D01*
X419657Y2542502D01*
X434302Y2527857D01*
X452238Y2517501D01*
X472244Y2512140D01*
X492956D01*
X512962Y2517501D01*
X530898Y2527857D01*
X545543Y2542502D01*
X555899Y2560438D01*
X561260Y2580444D01*
Y2601156D01*
X555899Y2621162D01*
X545543Y2639098D01*
X530898Y2653743D01*
X512962Y2664099D01*
X492956Y2669460D01*
D02*
G37*
G36*
X307260Y2585720D02*
X233680D01*
Y2512140D01*
X238956D01*
X258962Y2517501D01*
X276898Y2527857D01*
X291543Y2542502D01*
X301899Y2560438D01*
X307260Y2580444D01*
Y2585720D01*
D02*
G37*
G36*
X223520D02*
X149940D01*
Y2580444D01*
X155301Y2560438D01*
X165657Y2542502D01*
X180302Y2527857D01*
X198238Y2517501D01*
X218244Y2512140D01*
X223520D01*
Y2585720D01*
D02*
G37*
G36*
X4633156Y2478960D02*
X4627880D01*
Y2405380D01*
X4701460D01*
Y2410656D01*
X4696099Y2430662D01*
X4685743Y2448598D01*
X4671098Y2463243D01*
X4653162Y2473599D01*
X4633156Y2478960D01*
D02*
G37*
G36*
X4617720D02*
X4612444D01*
X4592438Y2473599D01*
X4574502Y2463243D01*
X4559857Y2448598D01*
X4549501Y2430662D01*
X4544140Y2410656D01*
Y2405380D01*
X4617720D01*
Y2478960D01*
D02*
G37*
G36*
X238956Y2415460D02*
X233680D01*
Y2341880D01*
X307260D01*
Y2347156D01*
X301899Y2367162D01*
X291543Y2385098D01*
X276898Y2399743D01*
X258962Y2410099D01*
X238956Y2415460D01*
D02*
G37*
G36*
X223520D02*
X218244D01*
X198238Y2410099D01*
X180302Y2399743D01*
X165657Y2385098D01*
X155301Y2367162D01*
X149940Y2347156D01*
Y2341880D01*
X223520D01*
Y2415460D01*
D02*
G37*
G36*
X4701460Y2395220D02*
X4627880D01*
Y2321640D01*
X4633156D01*
X4653162Y2327001D01*
X4671098Y2337357D01*
X4685743Y2352002D01*
X4696099Y2369938D01*
X4701460Y2389944D01*
Y2395220D01*
D02*
G37*
G36*
X4617720D02*
X4544140D01*
Y2389944D01*
X4549501Y2369938D01*
X4559857Y2352002D01*
X4574502Y2337357D01*
X4592438Y2327001D01*
X4612444Y2321640D01*
X4617720D01*
Y2395220D01*
D02*
G37*
G36*
X4379156Y2478960D02*
X4358444D01*
X4338438Y2473599D01*
X4320502Y2463243D01*
X4305857Y2448598D01*
X4295501Y2430662D01*
X4290140Y2410656D01*
Y2389944D01*
X4295501Y2369938D01*
X4305857Y2352002D01*
X4320502Y2337357D01*
X4338438Y2327001D01*
X4358444Y2321640D01*
X4379156D01*
X4399162Y2327001D01*
X4417098Y2337357D01*
X4431743Y2352002D01*
X4442099Y2369938D01*
X4447460Y2389944D01*
Y2410656D01*
X4442099Y2430662D01*
X4431743Y2448598D01*
X4417098Y2463243D01*
X4399162Y2473599D01*
X4379156Y2478960D01*
D02*
G37*
G36*
X492956Y2415460D02*
X472244D01*
X452238Y2410099D01*
X434302Y2399743D01*
X419657Y2385098D01*
X409301Y2367162D01*
X403940Y2347156D01*
Y2326444D01*
X409301Y2306438D01*
X419657Y2288502D01*
X434302Y2273857D01*
X452238Y2263501D01*
X472244Y2258140D01*
X492956D01*
X512962Y2263501D01*
X530898Y2273857D01*
X545543Y2288502D01*
X555899Y2306438D01*
X561260Y2326444D01*
Y2347156D01*
X555899Y2367162D01*
X545543Y2385098D01*
X530898Y2399743D01*
X512962Y2410099D01*
X492956Y2415460D01*
D02*
G37*
G36*
X307260Y2331720D02*
X233680D01*
Y2258140D01*
X238956D01*
X258962Y2263501D01*
X276898Y2273857D01*
X291543Y2288502D01*
X301899Y2306438D01*
X307260Y2326444D01*
Y2331720D01*
D02*
G37*
G36*
X223520D02*
X149940D01*
Y2326444D01*
X155301Y2306438D01*
X165657Y2288502D01*
X180302Y2273857D01*
X198238Y2263501D01*
X218244Y2258140D01*
X223520D01*
Y2331720D01*
D02*
G37*
G36*
X4633156Y2224960D02*
X4627880D01*
Y2151380D01*
X4701460D01*
Y2156656D01*
X4696099Y2176662D01*
X4685743Y2194598D01*
X4671098Y2209243D01*
X4653162Y2219599D01*
X4633156Y2224960D01*
D02*
G37*
G36*
X4617720D02*
X4612444D01*
X4592438Y2219599D01*
X4574502Y2209243D01*
X4559857Y2194598D01*
X4549501Y2176662D01*
X4544140Y2156656D01*
Y2151380D01*
X4617720D01*
Y2224960D01*
D02*
G37*
G36*
X2369699Y2184000D02*
X2354701D01*
X2340845Y2178261D01*
X2330239Y2167655D01*
X2324500Y2153799D01*
Y2138801D01*
X2330239Y2124945D01*
X2340845Y2114339D01*
X2354701Y2108600D01*
X2369699D01*
X2383555Y2114339D01*
X2394161Y2124945D01*
X2399900Y2138801D01*
Y2153799D01*
X2394161Y2167655D01*
X2383555Y2178261D01*
X2369699Y2184000D01*
D02*
G37*
G36*
X238956Y2161460D02*
X233680D01*
Y2087880D01*
X307260D01*
Y2093156D01*
X301899Y2113162D01*
X291543Y2131098D01*
X276898Y2145743D01*
X258962Y2156099D01*
X238956Y2161460D01*
D02*
G37*
G36*
X223520D02*
X218244D01*
X198238Y2156099D01*
X180302Y2145743D01*
X165657Y2131098D01*
X155301Y2113162D01*
X149940Y2093156D01*
Y2087880D01*
X223520D01*
Y2161460D01*
D02*
G37*
G36*
X4701460Y2141220D02*
X4627880D01*
Y2067640D01*
X4633156D01*
X4653162Y2073001D01*
X4671098Y2083357D01*
X4685743Y2098002D01*
X4696099Y2115938D01*
X4701460Y2135944D01*
Y2141220D01*
D02*
G37*
G36*
X4617720D02*
X4544140D01*
Y2135944D01*
X4549501Y2115938D01*
X4559857Y2098002D01*
X4574502Y2083357D01*
X4592438Y2073001D01*
X4612444Y2067640D01*
X4617720D01*
Y2141220D01*
D02*
G37*
G36*
X4379156Y2224960D02*
X4358444D01*
X4338438Y2219599D01*
X4320502Y2209243D01*
X4305857Y2194598D01*
X4295501Y2176662D01*
X4290140Y2156656D01*
Y2135944D01*
X4295501Y2115938D01*
X4305857Y2098002D01*
X4320502Y2083357D01*
X4338438Y2073001D01*
X4358444Y2067640D01*
X4379156D01*
X4399162Y2073001D01*
X4417098Y2083357D01*
X4431743Y2098002D01*
X4442099Y2115938D01*
X4447460Y2135944D01*
Y2156656D01*
X4442099Y2176662D01*
X4431743Y2194598D01*
X4417098Y2209243D01*
X4399162Y2219599D01*
X4379156Y2224960D01*
D02*
G37*
G36*
X492956Y2161460D02*
X472244D01*
X452238Y2156099D01*
X434302Y2145743D01*
X419657Y2131098D01*
X409301Y2113162D01*
X403940Y2093156D01*
Y2072444D01*
X409301Y2052438D01*
X419657Y2034502D01*
X434302Y2019857D01*
X452238Y2009501D01*
X472244Y2004140D01*
X492956D01*
X512962Y2009501D01*
X530898Y2019857D01*
X545543Y2034502D01*
X555899Y2052438D01*
X561260Y2072444D01*
Y2093156D01*
X555899Y2113162D01*
X545543Y2131098D01*
X530898Y2145743D01*
X512962Y2156099D01*
X492956Y2161460D01*
D02*
G37*
G36*
X307260Y2077720D02*
X233680D01*
Y2004140D01*
X238956D01*
X258962Y2009501D01*
X276898Y2019857D01*
X291543Y2034502D01*
X301899Y2052438D01*
X307260Y2072444D01*
Y2077720D01*
D02*
G37*
G36*
X223520D02*
X149940D01*
Y2072444D01*
X155301Y2052438D01*
X165657Y2034502D01*
X180302Y2019857D01*
X198238Y2009501D01*
X218244Y2004140D01*
X223520D01*
Y2077720D01*
D02*
G37*
G36*
X1988699Y2069700D02*
X1973701D01*
X1959845Y2063961D01*
X1949239Y2053355D01*
X1943500Y2039499D01*
Y2024501D01*
X1949239Y2010645D01*
X1959845Y2000039D01*
X1973701Y1994300D01*
X1988699D01*
X2002555Y2000039D01*
X2013161Y2010645D01*
X2018900Y2024501D01*
Y2039499D01*
X2013161Y2053355D01*
X2002555Y2063961D01*
X1988699Y2069700D01*
D02*
G37*
G36*
X2674499Y2057000D02*
X2659501D01*
X2645645Y2051261D01*
X2635039Y2040655D01*
X2629300Y2026799D01*
Y2011801D01*
X2635039Y1997945D01*
X2645645Y1987339D01*
X2659501Y1981600D01*
X2674499D01*
X2688355Y1987339D01*
X2698961Y1997945D01*
X2704700Y2011801D01*
Y2026799D01*
X2698961Y2040655D01*
X2688355Y2051261D01*
X2674499Y2057000D01*
D02*
G37*
G36*
X3270520Y1985560D02*
X3225440D01*
Y1950955D01*
X3200760D01*
Y1985560D01*
X3155680D01*
Y1930400D01*
Y1875240D01*
X3200760D01*
Y1909845D01*
X3225440D01*
Y1875240D01*
X3270520D01*
Y1930400D01*
Y1985560D01*
D02*
G37*
G36*
X3325760D02*
X3280680D01*
Y1935480D01*
X3325760D01*
Y1985560D01*
D02*
G37*
G36*
X3145520D02*
X3100440D01*
Y1935480D01*
X3145520D01*
Y1985560D01*
D02*
G37*
G36*
X4633156Y1970960D02*
X4627880D01*
Y1897380D01*
X4701460D01*
Y1902656D01*
X4696099Y1922662D01*
X4685743Y1940598D01*
X4671098Y1955243D01*
X4653162Y1965599D01*
X4633156Y1970960D01*
D02*
G37*
G36*
X4617720D02*
X4612444D01*
X4592438Y1965599D01*
X4574502Y1955243D01*
X4559857Y1940598D01*
X4549501Y1922662D01*
X4544140Y1902656D01*
Y1897380D01*
X4617720D01*
Y1970960D01*
D02*
G37*
G36*
X2305702Y2003700D02*
X2291698D01*
X2278761Y1998341D01*
X2268859Y1988439D01*
X2263500Y1975502D01*
Y1961498D01*
X2268859Y1948561D01*
X2278145Y1939275D01*
Y1922256D01*
X2251558Y1895670D01*
X2242195Y1900674D01*
X2243055Y1905000D01*
X2241490Y1912866D01*
X2237035Y1919535D01*
X2230366Y1923990D01*
X2222500Y1925555D01*
X2120901D01*
X2120900Y1925555D01*
X2113034Y1923990D01*
X2106365Y1919535D01*
X2092715Y1905885D01*
X2088260Y1899216D01*
X2086695Y1891350D01*
X2086695Y1891349D01*
Y1864960D01*
X2070140D01*
Y1833880D01*
X2106300D01*
Y1828800D01*
X2111380D01*
Y1792640D01*
X2139980D01*
X2142460Y1792640D01*
X2150140D01*
X2152620Y1792640D01*
X2222460D01*
Y1799431D01*
X2225080Y1800578D01*
X2235240Y1793935D01*
Y1770380D01*
X2271400D01*
Y1760220D01*
X2235240D01*
Y1729140D01*
X2251795D01*
Y1715451D01*
X2251795Y1715450D01*
X2253360Y1707584D01*
X2257815Y1700915D01*
X2258765Y1699965D01*
X2265434Y1695510D01*
X2273300Y1693945D01*
X2281166Y1695510D01*
X2287835Y1699965D01*
X2292290Y1706634D01*
X2293855Y1714500D01*
X2292905Y1719276D01*
Y1729140D01*
X2307560D01*
X2307560Y1729140D01*
X2315240D01*
Y1729140D01*
X2317720Y1729140D01*
X2330845D01*
Y1680712D01*
X2330845Y1680710D01*
X2332410Y1672844D01*
X2336865Y1666176D01*
X2357294Y1645747D01*
X2353406Y1636360D01*
X2317720D01*
X2315240Y1636360D01*
X2307560D01*
X2305080Y1636360D01*
X2276480D01*
Y1600200D01*
Y1564040D01*
X2305080D01*
X2307560Y1564040D01*
X2315240D01*
X2317720Y1564040D01*
X2328296D01*
Y1545070D01*
X2322563Y1539337D01*
X2317554Y1531841D01*
X2315795Y1523000D01*
Y1492606D01*
X2315445Y1492461D01*
X2304839Y1481855D01*
X2299100Y1467999D01*
Y1453001D01*
X2304839Y1439145D01*
X2315445Y1428539D01*
X2329301Y1422800D01*
X2344299D01*
X2358155Y1428539D01*
X2368761Y1439145D01*
X2371675Y1446182D01*
X2383643Y1452222D01*
X2397646D01*
X2410583Y1457581D01*
X2420485Y1467483D01*
X2425844Y1480420D01*
Y1494424D01*
X2420485Y1507361D01*
X2418115Y1509732D01*
Y1634549D01*
X2418115Y1634550D01*
X2416550Y1642417D01*
X2412094Y1649085D01*
X2371955Y1689225D01*
Y1729140D01*
X2387560D01*
Y1801460D01*
X2344309D01*
X2335455Y1810314D01*
X2334427Y1811852D01*
X2302945Y1843335D01*
X2296277Y1847790D01*
X2288410Y1849355D01*
X2288409Y1849355D01*
X2276657D01*
X2272769Y1858742D01*
X2313234Y1899207D01*
X2313235Y1899208D01*
X2317690Y1905876D01*
X2319255Y1913742D01*
Y1939275D01*
X2328541Y1948561D01*
X2333900Y1961498D01*
Y1975502D01*
X2328541Y1988439D01*
X2318639Y1998341D01*
X2305702Y2003700D01*
D02*
G37*
G36*
X2469520Y1953860D02*
X2438440D01*
Y1938255D01*
X2413000D01*
X2405134Y1936690D01*
X2398465Y1932235D01*
X2394010Y1925566D01*
X2392445Y1917700D01*
X2394010Y1909834D01*
X2398465Y1903165D01*
X2405134Y1898710D01*
X2413000Y1897145D01*
X2438440D01*
Y1881540D01*
X2469520D01*
Y1917700D01*
Y1953860D01*
D02*
G37*
G36*
X3325760Y1925320D02*
X3280680D01*
Y1875240D01*
X3325760D01*
Y1925320D01*
D02*
G37*
G36*
X3145520Y1925320D02*
X3100440D01*
Y1875240D01*
X3145520D01*
Y1925320D01*
D02*
G37*
G36*
X2518440Y1953860D02*
X2510760D01*
X2508280Y1953860D01*
X2479680D01*
Y1917700D01*
Y1881540D01*
X2503030D01*
X2510760Y1881540D01*
X2517073Y1873995D01*
X2518156Y1871381D01*
X2528762Y1860775D01*
X2542618Y1855036D01*
X2557616D01*
X2571472Y1860775D01*
X2582077Y1871381D01*
X2586286Y1881540D01*
X2590760D01*
Y1953860D01*
X2520920D01*
X2518440Y1953860D01*
D02*
G37*
G36*
X238956Y1907460D02*
X233680D01*
Y1833880D01*
X307260D01*
Y1839156D01*
X301899Y1859162D01*
X291543Y1877098D01*
X276898Y1891743D01*
X258962Y1902099D01*
X238956Y1907460D01*
D02*
G37*
G36*
X223520D02*
X218244D01*
X198238Y1902099D01*
X180302Y1891743D01*
X165657Y1877098D01*
X155301Y1859162D01*
X149940Y1839156D01*
Y1833880D01*
X223520D01*
Y1907460D01*
D02*
G37*
G36*
X4701460Y1887220D02*
X4627880D01*
Y1813640D01*
X4633156D01*
X4653162Y1819001D01*
X4671098Y1829357D01*
X4685743Y1844002D01*
X4696099Y1861938D01*
X4701460Y1881944D01*
Y1887220D01*
D02*
G37*
G36*
X4617720D02*
X4544140D01*
Y1881944D01*
X4549501Y1861938D01*
X4559857Y1844002D01*
X4574502Y1829357D01*
X4592438Y1819001D01*
X4612444Y1813640D01*
X4617720D01*
Y1887220D01*
D02*
G37*
G36*
X4379156Y1970960D02*
X4358444D01*
X4338438Y1965599D01*
X4320502Y1955243D01*
X4305857Y1940598D01*
X4295501Y1922662D01*
X4290140Y1902656D01*
Y1881944D01*
X4295501Y1861938D01*
X4305857Y1844002D01*
X4320502Y1829357D01*
X4338438Y1819001D01*
X4358444Y1813640D01*
X4379156D01*
X4399162Y1819001D01*
X4417098Y1829357D01*
X4431743Y1844002D01*
X4442099Y1861938D01*
X4447460Y1881944D01*
Y1902656D01*
X4442099Y1922662D01*
X4431743Y1940598D01*
X4417098Y1955243D01*
X4399162Y1965599D01*
X4379156Y1970960D01*
D02*
G37*
G36*
X2101220Y1823720D02*
X2070140D01*
Y1792640D01*
X2101220D01*
Y1823720D01*
D02*
G37*
G36*
X2469520Y1814160D02*
X2438440D01*
Y1783080D01*
X2469520D01*
Y1814160D01*
D02*
G37*
G36*
X492956Y1907460D02*
X472244D01*
X452238Y1902099D01*
X434302Y1891743D01*
X419657Y1877098D01*
X409301Y1859162D01*
X403940Y1839156D01*
Y1818444D01*
X409301Y1798438D01*
X419657Y1780502D01*
X434302Y1765857D01*
X452238Y1755501D01*
X472244Y1750140D01*
X492956D01*
X512962Y1755501D01*
X530898Y1765857D01*
X545543Y1780502D01*
X555899Y1798438D01*
X561260Y1818444D01*
Y1839156D01*
X555899Y1859162D01*
X545543Y1877098D01*
X530898Y1891743D01*
X512962Y1902099D01*
X492956Y1907460D01*
D02*
G37*
G36*
X307260Y1823720D02*
X233680D01*
Y1750140D01*
X238956D01*
X258962Y1755501D01*
X276898Y1765857D01*
X291543Y1780502D01*
X301899Y1798438D01*
X307260Y1818444D01*
Y1823720D01*
D02*
G37*
G36*
X223520D02*
X149940D01*
Y1818444D01*
X155301Y1798438D01*
X165657Y1780502D01*
X180302Y1765857D01*
X198238Y1755501D01*
X218244Y1750140D01*
X223520D01*
Y1823720D01*
D02*
G37*
G36*
X2518440Y1814160D02*
X2510760D01*
X2508280Y1814160D01*
X2479680D01*
Y1778000D01*
X2474600D01*
Y1772920D01*
X2438440D01*
Y1741840D01*
X2462905D01*
Y1707541D01*
X2462905Y1707540D01*
X2464470Y1699674D01*
X2468925Y1693006D01*
X2474666Y1687265D01*
X2481334Y1682810D01*
X2489200Y1681245D01*
X2497066Y1682810D01*
X2503735Y1687265D01*
X2508190Y1693934D01*
X2509755Y1701800D01*
X2508190Y1709666D01*
X2504015Y1715915D01*
Y1726572D01*
X2514175Y1728592D01*
X2518156Y1718981D01*
X2528762Y1708375D01*
X2542618Y1702636D01*
X2557616D01*
X2571472Y1708375D01*
X2582077Y1718981D01*
X2587817Y1732837D01*
Y1741840D01*
X2590760D01*
Y1814160D01*
X2520920D01*
X2518440Y1814160D01*
D02*
G37*
G36*
X2938060Y1701160D02*
X2887980D01*
Y1656080D01*
X2938060D01*
Y1701160D01*
D02*
G37*
G36*
X2877820D02*
X2827740D01*
Y1656080D01*
X2877820D01*
Y1701160D01*
D02*
G37*
G36*
X2598299Y1650600D02*
X2583301D01*
X2579583Y1649060D01*
X2520920D01*
X2518440Y1649060D01*
X2510760D01*
X2508280Y1649060D01*
X2479680D01*
Y1612900D01*
X2474600D01*
Y1607820D01*
X2438440D01*
Y1576740D01*
X2454995D01*
Y1550351D01*
X2454995Y1550350D01*
X2455184Y1549400D01*
X2454995Y1548450D01*
X2454995Y1548449D01*
Y1483960D01*
X2438440D01*
Y1465787D01*
X2438045Y1463800D01*
X2438440Y1461813D01*
Y1452880D01*
X2474600D01*
Y1447800D01*
X2479680D01*
Y1411640D01*
X2508280D01*
X2510760Y1411640D01*
X2518440D01*
X2520920Y1411640D01*
X2590760D01*
Y1483960D01*
X2590760Y1483960D01*
X2588836Y1494120D01*
X2597361Y1502645D01*
X2603100Y1516501D01*
Y1531499D01*
X2597361Y1545355D01*
X2586755Y1555961D01*
X2572899Y1561700D01*
X2557901D01*
X2544045Y1555961D01*
X2533439Y1545355D01*
X2527700Y1531499D01*
Y1516501D01*
X2533439Y1502645D01*
X2537513Y1498571D01*
Y1483960D01*
X2520920D01*
X2518440Y1483960D01*
X2510760D01*
X2508280Y1483960D01*
X2496105D01*
Y1544624D01*
X2497055Y1549400D01*
X2496105Y1554176D01*
Y1569556D01*
X2503289Y1576740D01*
X2518440Y1576740D01*
X2520920Y1576740D01*
X2579583D01*
X2583301Y1575200D01*
X2598299D01*
X2612155Y1580939D01*
X2622761Y1591545D01*
X2628500Y1605401D01*
Y1620399D01*
X2622761Y1634255D01*
X2612155Y1644861D01*
X2598299Y1650600D01*
D02*
G37*
G36*
X4633156Y1716960D02*
X4627880D01*
Y1643380D01*
X4701460D01*
Y1648656D01*
X4696099Y1668662D01*
X4685743Y1686598D01*
X4671098Y1701243D01*
X4653162Y1711599D01*
X4633156Y1716960D01*
D02*
G37*
G36*
X4617720D02*
X4612444D01*
X4592438Y1711599D01*
X4574502Y1701243D01*
X4559857Y1686598D01*
X4549501Y1668662D01*
X4544140Y1648656D01*
Y1643380D01*
X4617720D01*
Y1716960D01*
D02*
G37*
G36*
X2469520Y1649060D02*
X2438440D01*
Y1617980D01*
X2469520D01*
Y1649060D01*
D02*
G37*
G36*
X2938060Y1645920D02*
X2887980D01*
Y1600840D01*
X2938060D01*
Y1645920D01*
D02*
G37*
G36*
X2877820D02*
X2827740D01*
Y1600840D01*
X2877820D01*
Y1645920D01*
D02*
G37*
G36*
X238956Y1653460D02*
X233680D01*
Y1579880D01*
X307260D01*
Y1585156D01*
X301899Y1605162D01*
X291543Y1623098D01*
X276898Y1637743D01*
X258962Y1648099D01*
X238956Y1653460D01*
D02*
G37*
G36*
X223520D02*
X218244D01*
X198238Y1648099D01*
X180302Y1637743D01*
X165657Y1623098D01*
X155301Y1605162D01*
X149940Y1585156D01*
Y1579880D01*
X223520D01*
Y1653460D01*
D02*
G37*
G36*
X2065357Y1652900D02*
X2049443D01*
X2034742Y1646810D01*
X2023490Y1635558D01*
X2017400Y1620857D01*
Y1604943D01*
X2023490Y1590242D01*
X2034742Y1578990D01*
X2049443Y1572900D01*
X2065357D01*
X2080058Y1578990D01*
X2091310Y1590242D01*
X2097400Y1604943D01*
Y1620857D01*
X2091310Y1635558D01*
X2080058Y1646810D01*
X2065357Y1652900D01*
D02*
G37*
G36*
X2266320Y1636360D02*
X2235240D01*
Y1620755D01*
X2209800D01*
X2201934Y1619190D01*
X2195265Y1614735D01*
X2190810Y1608066D01*
X2189245Y1600200D01*
X2190810Y1592334D01*
X2195265Y1585665D01*
X2201934Y1581210D01*
X2209800Y1579645D01*
X2235240D01*
Y1564040D01*
X2266320D01*
Y1600200D01*
Y1636360D01*
D02*
G37*
G36*
X4701460Y1633220D02*
X4627880D01*
Y1559640D01*
X4633156D01*
X4653162Y1565001D01*
X4671098Y1575357D01*
X4685743Y1590002D01*
X4696099Y1607938D01*
X4701460Y1627944D01*
Y1633220D01*
D02*
G37*
G36*
X4617720D02*
X4544140D01*
Y1627944D01*
X4549501Y1607938D01*
X4559857Y1590002D01*
X4574502Y1575357D01*
X4592438Y1565001D01*
X4612444Y1559640D01*
X4617720D01*
Y1633220D01*
D02*
G37*
G36*
X4379156Y1716960D02*
X4358444D01*
X4338438Y1711599D01*
X4320502Y1701243D01*
X4305857Y1686598D01*
X4295501Y1668662D01*
X4290140Y1648656D01*
Y1627944D01*
X4295501Y1607938D01*
X4305857Y1590002D01*
X4320502Y1575357D01*
X4338438Y1565001D01*
X4358444Y1559640D01*
X4379156D01*
X4399162Y1565001D01*
X4417098Y1575357D01*
X4431743Y1590002D01*
X4442099Y1607938D01*
X4447460Y1627944D01*
Y1648656D01*
X4442099Y1668662D01*
X4431743Y1686598D01*
X4417098Y1701243D01*
X4399162Y1711599D01*
X4379156Y1716960D01*
D02*
G37*
G36*
X2938060Y1576160D02*
X2887980D01*
Y1531080D01*
X2938060D01*
Y1576160D01*
D02*
G37*
G36*
X2877820D02*
X2827740D01*
Y1531080D01*
X2877820D01*
Y1576160D01*
D02*
G37*
G36*
X492956Y1653460D02*
X472244D01*
X452238Y1648099D01*
X434302Y1637743D01*
X419657Y1623098D01*
X409301Y1605162D01*
X403940Y1585156D01*
Y1564444D01*
X409301Y1544438D01*
X419657Y1526502D01*
X434302Y1511857D01*
X452238Y1501501D01*
X472244Y1496140D01*
X492956D01*
X512962Y1501501D01*
X530898Y1511857D01*
X545543Y1526502D01*
X555899Y1544438D01*
X561260Y1564444D01*
Y1585156D01*
X555899Y1605162D01*
X545543Y1623098D01*
X530898Y1637743D01*
X512962Y1648099D01*
X492956Y1653460D01*
D02*
G37*
G36*
X307260Y1569720D02*
X233680D01*
Y1496140D01*
X238956D01*
X258962Y1501501D01*
X276898Y1511857D01*
X291543Y1526502D01*
X301899Y1544438D01*
X307260Y1564444D01*
Y1569720D01*
D02*
G37*
G36*
X223520D02*
X149940D01*
Y1564444D01*
X155301Y1544438D01*
X165657Y1526502D01*
X180302Y1511857D01*
X198238Y1501501D01*
X218244Y1496140D01*
X223520D01*
Y1569720D01*
D02*
G37*
G36*
X2938060Y1520920D02*
X2887980D01*
Y1475840D01*
X2938060D01*
Y1520920D01*
D02*
G37*
G36*
X2877820D02*
X2827740D01*
Y1475840D01*
X2877820D01*
Y1520920D01*
D02*
G37*
G36*
X2469520Y1442720D02*
X2438440D01*
Y1411640D01*
X2469520D01*
Y1442720D01*
D02*
G37*
G36*
X4633156Y1462960D02*
X4627880D01*
Y1389380D01*
X4701460D01*
Y1394656D01*
X4696099Y1414662D01*
X4685743Y1432598D01*
X4671098Y1447243D01*
X4653162Y1457599D01*
X4633156Y1462960D01*
D02*
G37*
G36*
X4617720D02*
X4612444D01*
X4592438Y1457599D01*
X4574502Y1447243D01*
X4559857Y1432598D01*
X4549501Y1414662D01*
X4544140Y1394656D01*
Y1389380D01*
X4617720D01*
Y1462960D01*
D02*
G37*
G36*
X238956Y1399460D02*
X233680D01*
Y1325880D01*
X307260D01*
Y1331156D01*
X301899Y1351162D01*
X291543Y1369098D01*
X276898Y1383743D01*
X258962Y1394099D01*
X238956Y1399460D01*
D02*
G37*
G36*
X223520D02*
X218244D01*
X198238Y1394099D01*
X180302Y1383743D01*
X165657Y1369098D01*
X155301Y1351162D01*
X149940Y1331156D01*
Y1325880D01*
X223520D01*
Y1399460D01*
D02*
G37*
G36*
X4701460Y1379220D02*
X4627880D01*
Y1305640D01*
X4633156D01*
X4653162Y1311001D01*
X4671098Y1321357D01*
X4685743Y1336002D01*
X4696099Y1353938D01*
X4701460Y1373944D01*
Y1379220D01*
D02*
G37*
G36*
X4617720D02*
X4544140D01*
Y1373944D01*
X4549501Y1353938D01*
X4559857Y1336002D01*
X4574502Y1321357D01*
X4592438Y1311001D01*
X4612444Y1305640D01*
X4617720D01*
Y1379220D01*
D02*
G37*
G36*
X4379156Y1462960D02*
X4358444D01*
X4338438Y1457599D01*
X4320502Y1447243D01*
X4305857Y1432598D01*
X4295501Y1414662D01*
X4290140Y1394656D01*
Y1373944D01*
X4295501Y1353938D01*
X4305857Y1336002D01*
X4320502Y1321357D01*
X4338438Y1311001D01*
X4358444Y1305640D01*
X4379156D01*
X4399162Y1311001D01*
X4417098Y1321357D01*
X4431743Y1336002D01*
X4442099Y1353938D01*
X4447460Y1373944D01*
Y1394656D01*
X4442099Y1414662D01*
X4431743Y1432598D01*
X4417098Y1447243D01*
X4399162Y1457599D01*
X4379156Y1462960D01*
D02*
G37*
G36*
X492956Y1399460D02*
X472244D01*
X452238Y1394099D01*
X434302Y1383743D01*
X419657Y1369098D01*
X409301Y1351162D01*
X403940Y1331156D01*
Y1310444D01*
X409301Y1290438D01*
X419657Y1272502D01*
X434302Y1257857D01*
X452238Y1247501D01*
X472244Y1242140D01*
X492956D01*
X512962Y1247501D01*
X530898Y1257857D01*
X545543Y1272502D01*
X555899Y1290438D01*
X561260Y1310444D01*
Y1331156D01*
X555899Y1351162D01*
X545543Y1369098D01*
X530898Y1383743D01*
X512962Y1394099D01*
X492956Y1399460D01*
D02*
G37*
G36*
X307260Y1315720D02*
X233680D01*
Y1242140D01*
X238956D01*
X258962Y1247501D01*
X276898Y1257857D01*
X291543Y1272502D01*
X301899Y1290438D01*
X307260Y1310444D01*
Y1315720D01*
D02*
G37*
G36*
X223520D02*
X149940D01*
Y1310444D01*
X155301Y1290438D01*
X165657Y1272502D01*
X180302Y1257857D01*
X198238Y1247501D01*
X218244Y1242140D01*
X223520D01*
Y1315720D01*
D02*
G37*
G36*
X2851780Y1191860D02*
Y1160780D01*
X2882860D01*
Y1191860D01*
X2851780D01*
D02*
G37*
G36*
X4633156Y1208960D02*
X4627880D01*
Y1135380D01*
X4701460D01*
Y1140656D01*
X4696099Y1160662D01*
X4685743Y1178598D01*
X4671098Y1193243D01*
X4653162Y1203599D01*
X4633156Y1208960D01*
D02*
G37*
G36*
X4617720D02*
X4612444D01*
X4592438Y1203599D01*
X4574502Y1193243D01*
X4559857Y1178598D01*
X4549501Y1160662D01*
X4544140Y1140656D01*
Y1135380D01*
X4617720D01*
Y1208960D01*
D02*
G37*
G36*
X2810540Y1191860D02*
X2802860D01*
X2800380Y1191860D01*
X2730540D01*
Y1170238D01*
X2692451Y1132149D01*
X2684680Y1120519D01*
X2681951Y1106800D01*
Y1104168D01*
X2680100Y1099699D01*
Y1084701D01*
X2685839Y1070845D01*
X2696445Y1060239D01*
X2710301Y1054500D01*
X2725299D01*
X2739155Y1060239D01*
X2749761Y1070845D01*
X2755500Y1084701D01*
Y1093802D01*
X2781238Y1119540D01*
X2800380D01*
X2802860Y1119540D01*
X2810540D01*
X2813020Y1119540D01*
X2841620D01*
Y1155700D01*
Y1191860D01*
X2813020D01*
X2810540Y1191860D01*
D02*
G37*
G36*
X238956Y1145460D02*
X233680D01*
Y1071880D01*
X307260D01*
Y1077156D01*
X301899Y1097162D01*
X291543Y1115098D01*
X276898Y1129743D01*
X258962Y1140099D01*
X238956Y1145460D01*
D02*
G37*
G36*
X223520D02*
X218244D01*
X198238Y1140099D01*
X180302Y1129743D01*
X165657Y1115098D01*
X155301Y1097162D01*
X149940Y1077156D01*
Y1071880D01*
X223520D01*
Y1145460D01*
D02*
G37*
G36*
X2882860Y1150620D02*
X2851780D01*
Y1119540D01*
X2853791D01*
X2869305Y1104026D01*
Y1097941D01*
X2869305Y1097940D01*
X2870870Y1090074D01*
X2875325Y1083406D01*
X2881066Y1077665D01*
X2887734Y1073210D01*
X2895600Y1071645D01*
X2903466Y1073210D01*
X2910135Y1077665D01*
X2914590Y1084334D01*
X2916155Y1092200D01*
X2914590Y1100066D01*
X2910415Y1106315D01*
Y1112539D01*
X2910415Y1112540D01*
X2908850Y1120406D01*
X2904394Y1127075D01*
X2904394Y1127075D01*
X2882860Y1148609D01*
Y1150620D01*
D02*
G37*
G36*
X4701460Y1125220D02*
X4627880D01*
Y1051640D01*
X4633156D01*
X4653162Y1057001D01*
X4671098Y1067357D01*
X4685743Y1082002D01*
X4696099Y1099938D01*
X4701460Y1119944D01*
Y1125220D01*
D02*
G37*
G36*
X4617720D02*
X4544140D01*
Y1119944D01*
X4549501Y1099938D01*
X4559857Y1082002D01*
X4574502Y1067357D01*
X4592438Y1057001D01*
X4612444Y1051640D01*
X4617720D01*
Y1125220D01*
D02*
G37*
G36*
X4379156Y1208960D02*
X4358444D01*
X4338438Y1203599D01*
X4320502Y1193243D01*
X4305857Y1178598D01*
X4295501Y1160662D01*
X4290140Y1140656D01*
Y1119944D01*
X4295501Y1099938D01*
X4305857Y1082002D01*
X4320502Y1067357D01*
X4338438Y1057001D01*
X4358444Y1051640D01*
X4379156D01*
X4399162Y1057001D01*
X4417098Y1067357D01*
X4431743Y1082002D01*
X4442099Y1099938D01*
X4447460Y1119944D01*
Y1140656D01*
X4442099Y1160662D01*
X4431743Y1178598D01*
X4417098Y1193243D01*
X4399162Y1203599D01*
X4379156Y1208960D01*
D02*
G37*
G36*
X492956Y1145460D02*
X472244D01*
X452238Y1140099D01*
X434302Y1129743D01*
X419657Y1115098D01*
X409301Y1097162D01*
X403940Y1077156D01*
Y1056444D01*
X409301Y1036438D01*
X419657Y1018502D01*
X434302Y1003857D01*
X452238Y993501D01*
X472244Y988140D01*
X492956D01*
X512962Y993501D01*
X530898Y1003857D01*
X545543Y1018502D01*
X555899Y1036438D01*
X561260Y1056444D01*
Y1077156D01*
X555899Y1097162D01*
X545543Y1115098D01*
X530898Y1129743D01*
X512962Y1140099D01*
X492956Y1145460D01*
D02*
G37*
G36*
X307260Y1061720D02*
X233680D01*
Y988140D01*
X238956D01*
X258962Y993501D01*
X276898Y1003857D01*
X291543Y1018502D01*
X301899Y1036438D01*
X307260Y1056444D01*
Y1061720D01*
D02*
G37*
G36*
X223520D02*
X149940D01*
Y1056444D01*
X155301Y1036438D01*
X165657Y1018502D01*
X180302Y1003857D01*
X198238Y993501D01*
X218244Y988140D01*
X223520D01*
Y1061720D01*
D02*
G37*
G36*
X4633156Y954960D02*
X4627880D01*
Y881380D01*
X4701460D01*
Y886656D01*
X4696099Y906662D01*
X4685743Y924598D01*
X4671098Y939243D01*
X4653162Y949599D01*
X4633156Y954960D01*
D02*
G37*
G36*
X4617720D02*
X4612444D01*
X4592438Y949599D01*
X4574502Y939243D01*
X4559857Y924598D01*
X4549501Y906662D01*
X4544140Y886656D01*
Y881380D01*
X4617720D01*
Y954960D01*
D02*
G37*
G36*
X238956Y891460D02*
X233680D01*
Y817880D01*
X307260D01*
Y823156D01*
X301899Y843162D01*
X291543Y861098D01*
X276898Y875743D01*
X258962Y886099D01*
X238956Y891460D01*
D02*
G37*
G36*
X223520D02*
X218244D01*
X198238Y886099D01*
X180302Y875743D01*
X165657Y861098D01*
X155301Y843162D01*
X149940Y823156D01*
Y817880D01*
X223520D01*
Y891460D01*
D02*
G37*
G36*
X4701460Y871220D02*
X4627880D01*
Y797640D01*
X4633156D01*
X4653162Y803001D01*
X4671098Y813357D01*
X4685743Y828002D01*
X4696099Y845938D01*
X4701460Y865944D01*
Y871220D01*
D02*
G37*
G36*
X4617720D02*
X4544140D01*
Y865944D01*
X4549501Y845938D01*
X4559857Y828002D01*
X4574502Y813357D01*
X4592438Y803001D01*
X4612444Y797640D01*
X4617720D01*
Y871220D01*
D02*
G37*
G36*
X4379156Y954960D02*
X4358444D01*
X4338438Y949599D01*
X4320502Y939243D01*
X4305857Y924598D01*
X4295501Y906662D01*
X4290140Y886656D01*
Y865944D01*
X4295501Y845938D01*
X4305857Y828002D01*
X4320502Y813357D01*
X4338438Y803001D01*
X4358444Y797640D01*
X4379156D01*
X4399162Y803001D01*
X4417098Y813357D01*
X4431743Y828002D01*
X4442099Y845938D01*
X4447460Y865944D01*
Y886656D01*
X4442099Y906662D01*
X4431743Y924598D01*
X4417098Y939243D01*
X4399162Y949599D01*
X4379156Y954960D01*
D02*
G37*
G36*
X492956Y891460D02*
X472244D01*
X452238Y886099D01*
X434302Y875743D01*
X419657Y861098D01*
X409301Y843162D01*
X403940Y823156D01*
Y802444D01*
X409301Y782438D01*
X419657Y764502D01*
X434302Y749857D01*
X452238Y739501D01*
X472244Y734140D01*
X492956D01*
X512962Y739501D01*
X530898Y749857D01*
X545543Y764502D01*
X555899Y782438D01*
X561260Y802444D01*
Y823156D01*
X555899Y843162D01*
X545543Y861098D01*
X530898Y875743D01*
X512962Y886099D01*
X492956Y891460D01*
D02*
G37*
G36*
X307260Y807720D02*
X233680D01*
Y734140D01*
X238956D01*
X258962Y739501D01*
X276898Y749857D01*
X291543Y764502D01*
X301899Y782438D01*
X307260Y802444D01*
Y807720D01*
D02*
G37*
G36*
X223520D02*
X149940D01*
Y802444D01*
X155301Y782438D01*
X165657Y764502D01*
X180302Y749857D01*
X198238Y739501D01*
X218244Y734140D01*
X223520D01*
Y807720D01*
D02*
G37*
G36*
X4633156Y700960D02*
X4627880D01*
Y627380D01*
X4701460D01*
Y632656D01*
X4696099Y652662D01*
X4685743Y670598D01*
X4671098Y685243D01*
X4653162Y695599D01*
X4633156Y700960D01*
D02*
G37*
G36*
X4617720D02*
X4612444D01*
X4592438Y695599D01*
X4574502Y685243D01*
X4559857Y670598D01*
X4549501Y652662D01*
X4544140Y632656D01*
Y627380D01*
X4617720D01*
Y700960D01*
D02*
G37*
G36*
X2305702Y1292500D02*
X2291698D01*
X2278761Y1287141D01*
X2268859Y1277239D01*
X2263500Y1264302D01*
Y1250298D01*
X2266929Y1242020D01*
X2261085Y1231860D01*
X2224440D01*
Y1215305D01*
X2210750D01*
X2202884Y1213740D01*
X2196215Y1209285D01*
X2195265Y1208335D01*
X2190810Y1201666D01*
X2189245Y1193800D01*
X2190810Y1185934D01*
X2195265Y1179265D01*
X2201934Y1174810D01*
X2209800Y1173245D01*
X2214576Y1174195D01*
X2217256D01*
X2224440Y1167011D01*
X2224440Y1151860D01*
X2224440Y1149380D01*
Y1079541D01*
X2224440Y1079540D01*
X2222900Y1074299D01*
X2222900Y1070018D01*
Y1059301D01*
X2228639Y1045445D01*
X2239245Y1034839D01*
X2253101Y1029100D01*
X2268099D01*
X2281955Y1034839D01*
X2292561Y1045445D01*
X2298300Y1059301D01*
Y1070018D01*
X2298300Y1074299D01*
X2296760Y1079540D01*
X2296760Y1079541D01*
Y1149380D01*
X2296760Y1151860D01*
Y1159540D01*
X2296760Y1162020D01*
Y1190620D01*
X2260600D01*
Y1200780D01*
X2296760D01*
Y1212198D01*
X2306920Y1216406D01*
X2375596Y1147730D01*
Y781160D01*
X2328540D01*
X2328540Y623769D01*
Y623728D01*
Y623728D01*
X2328540Y621227D01*
X2324461Y619537D01*
X2318380Y617018D01*
X2268860Y666538D01*
Y781160D01*
X2128540D01*
Y615840D01*
X2218162D01*
X2339051Y494951D01*
Y482600D01*
X2339700Y479337D01*
Y475598D01*
X2341131Y472144D01*
X2341780Y468881D01*
X2343629Y466115D01*
X2345059Y462661D01*
X2347702Y460018D01*
X2349551Y457251D01*
X2352318Y455402D01*
X2354961Y452759D01*
X2358415Y451329D01*
X2361181Y449480D01*
X2364444Y448831D01*
X2367898Y447400D01*
X2371637D01*
X2374900Y446751D01*
X2378163Y447400D01*
X2381902D01*
X2385356Y448831D01*
X2388619Y449480D01*
X2391385Y451329D01*
X2394839Y452759D01*
X2397482Y455402D01*
X2400249Y457251D01*
X2402098Y460018D01*
X2404741Y462661D01*
X2406171Y466115D01*
X2408020Y468881D01*
X2408669Y472144D01*
X2410100Y475598D01*
Y479337D01*
X2410749Y482600D01*
Y509800D01*
X2408020Y523519D01*
X2400249Y535149D01*
X2329718Y605680D01*
X2333927Y615840D01*
X2336428Y615840D01*
X2336429Y615840D01*
X2336469Y615840D01*
X2468860D01*
Y781160D01*
X2421804D01*
Y1157300D01*
X2420045Y1166141D01*
X2415037Y1173637D01*
X2333900Y1254774D01*
Y1264302D01*
X2328541Y1277239D01*
X2318639Y1287141D01*
X2305702Y1292500D01*
D02*
G37*
G36*
X238956Y637460D02*
X233680D01*
Y563880D01*
X307260D01*
Y569156D01*
X301899Y589162D01*
X291543Y607098D01*
X276898Y621743D01*
X258962Y632099D01*
X238956Y637460D01*
D02*
G37*
G36*
X223520D02*
X218244D01*
X198238Y632099D01*
X180302Y621743D01*
X165657Y607098D01*
X155301Y589162D01*
X149940Y569156D01*
Y563880D01*
X223520D01*
Y637460D01*
D02*
G37*
G36*
X4701460Y617220D02*
X4627880D01*
Y543640D01*
X4633156D01*
X4653162Y549001D01*
X4671098Y559357D01*
X4685743Y574002D01*
X4696099Y591938D01*
X4701460Y611944D01*
Y617220D01*
D02*
G37*
G36*
X4617720D02*
X4544140D01*
Y611944D01*
X4549501Y591938D01*
X4559857Y574002D01*
X4574502Y559357D01*
X4592438Y549001D01*
X4612444Y543640D01*
X4617720D01*
Y617220D01*
D02*
G37*
G36*
X4379156Y700960D02*
X4358444D01*
X4338438Y695599D01*
X4320502Y685243D01*
X4305857Y670598D01*
X4295501Y652662D01*
X4290140Y632656D01*
Y611944D01*
X4295501Y591938D01*
X4305857Y574002D01*
X4320502Y559357D01*
X4338438Y549001D01*
X4358444Y543640D01*
X4379156D01*
X4399162Y549001D01*
X4417098Y559357D01*
X4431743Y574002D01*
X4442099Y591938D01*
X4447460Y611944D01*
Y632656D01*
X4442099Y652662D01*
X4431743Y670598D01*
X4417098Y685243D01*
X4399162Y695599D01*
X4379156Y700960D01*
D02*
G37*
G36*
X492956Y637460D02*
X472244D01*
X452238Y632099D01*
X434302Y621743D01*
X419657Y607098D01*
X409301Y589162D01*
X403940Y569156D01*
Y548444D01*
X409301Y528438D01*
X419657Y510502D01*
X434302Y495857D01*
X452238Y485501D01*
X472244Y480140D01*
X492956D01*
X512962Y485501D01*
X530898Y495857D01*
X545543Y510502D01*
X555899Y528438D01*
X561260Y548444D01*
Y569156D01*
X555899Y589162D01*
X545543Y607098D01*
X530898Y621743D01*
X512962Y632099D01*
X492956Y637460D01*
D02*
G37*
G36*
X307260Y553720D02*
X233680D01*
Y480140D01*
X238956D01*
X258962Y485501D01*
X276898Y495857D01*
X291543Y510502D01*
X301899Y528438D01*
X307260Y548444D01*
Y553720D01*
D02*
G37*
G36*
X223520D02*
X149940D01*
Y548444D01*
X155301Y528438D01*
X165657Y510502D01*
X180302Y495857D01*
X198238Y485501D01*
X218244Y480140D01*
X223520D01*
Y553720D01*
D02*
G37*
G36*
X4633156Y446960D02*
X4627880D01*
Y373380D01*
X4701460D01*
Y378656D01*
X4696099Y398662D01*
X4685743Y416598D01*
X4671098Y431243D01*
X4653162Y441599D01*
X4633156Y446960D01*
D02*
G37*
G36*
X4379156D02*
X4373880D01*
Y373380D01*
X4447460D01*
Y378656D01*
X4442099Y398662D01*
X4431743Y416598D01*
X4417098Y431243D01*
X4399162Y441599D01*
X4379156Y446960D01*
D02*
G37*
G36*
X4617720D02*
X4612444D01*
X4592438Y441599D01*
X4574502Y431243D01*
X4559857Y416598D01*
X4549501Y398662D01*
X4544140Y378656D01*
Y373380D01*
X4617720D01*
Y446960D01*
D02*
G37*
G36*
X4363720D02*
X4358444D01*
X4338438Y441599D01*
X4320502Y431243D01*
X4305857Y416598D01*
X4295501Y398662D01*
X4290140Y378656D01*
Y373380D01*
X4363720D01*
Y446960D01*
D02*
G37*
G36*
X492956Y383460D02*
X487680D01*
Y309880D01*
X561260D01*
Y315156D01*
X555899Y335162D01*
X545543Y353098D01*
X530898Y367743D01*
X512962Y378099D01*
X492956Y383460D01*
D02*
G37*
G36*
X238956D02*
X233680D01*
Y309880D01*
X307260D01*
Y315156D01*
X301899Y335162D01*
X291543Y353098D01*
X276898Y367743D01*
X258962Y378099D01*
X238956Y383460D01*
D02*
G37*
G36*
X223520D02*
X218244D01*
X198238Y378099D01*
X180302Y367743D01*
X165657Y353098D01*
X155301Y335162D01*
X149940Y315156D01*
Y309880D01*
X223520D01*
Y383460D01*
D02*
G37*
G36*
X477520D02*
X472244D01*
X452238Y378099D01*
X434302Y367743D01*
X419657Y353098D01*
X409301Y335162D01*
X403940Y315156D01*
Y309880D01*
X477520D01*
Y383460D01*
D02*
G37*
G36*
X4701460Y363220D02*
X4627880D01*
Y289640D01*
X4633156D01*
X4653162Y295001D01*
X4671098Y305357D01*
X4685743Y320002D01*
X4696099Y337938D01*
X4701460Y357944D01*
Y363220D01*
D02*
G37*
G36*
X4617720D02*
X4544140D01*
Y357944D01*
X4549501Y337938D01*
X4559857Y320002D01*
X4574502Y305357D01*
X4592438Y295001D01*
X4612444Y289640D01*
X4617720D01*
Y363220D01*
D02*
G37*
G36*
X4447460D02*
X4373880D01*
Y289640D01*
X4379156D01*
X4399162Y295001D01*
X4417098Y305357D01*
X4431743Y320002D01*
X4442099Y337938D01*
X4447460Y357944D01*
Y363220D01*
D02*
G37*
G36*
X4363720D02*
X4290140D01*
Y357944D01*
X4295501Y337938D01*
X4305857Y320002D01*
X4320502Y305357D01*
X4338438Y295001D01*
X4358444Y289640D01*
X4363720D01*
Y363220D01*
D02*
G37*
G36*
X561260Y299720D02*
X487680D01*
Y226140D01*
X492956D01*
X512962Y231501D01*
X530898Y241857D01*
X545543Y256502D01*
X555899Y274438D01*
X561260Y294444D01*
Y299720D01*
D02*
G37*
G36*
X477520D02*
X403940D01*
Y294444D01*
X409301Y274438D01*
X419657Y256502D01*
X434302Y241857D01*
X452238Y231501D01*
X472244Y226140D01*
X477520D01*
Y299720D01*
D02*
G37*
G36*
X307260D02*
X233680D01*
Y226140D01*
X238956D01*
X258962Y231501D01*
X276898Y241857D01*
X291543Y256502D01*
X301899Y274438D01*
X307260Y294444D01*
Y299720D01*
D02*
G37*
G36*
X223520D02*
X149940D01*
Y294444D01*
X155301Y274438D01*
X165657Y256502D01*
X180302Y241857D01*
X198238Y231501D01*
X218244Y226140D01*
X223520D01*
Y299720D01*
D02*
G37*
%LPD*%
D25*
X1676400Y2641600D02*
Y2988741D01*
X1638300Y3026841D02*
X1676400Y2988741D01*
X1638300Y3026841D02*
Y3111500D01*
X1625600Y2794000D02*
Y2971800D01*
D26*
X2338899Y1523000D02*
X2351400Y1535500D01*
X2338899Y1462599D02*
Y1523000D01*
X2336800Y1460500D02*
X2338899Y1462599D01*
X2351400Y1535500D02*
Y1600200D01*
X2560617Y1453817D02*
Y1519217D01*
X2554600Y1447800D02*
X2560617Y1453817D01*
Y1519217D02*
X2565400Y1524000D01*
X2298700Y1257300D02*
X2398700Y1157300D01*
Y698500D02*
Y1157300D01*
D27*
X3150600Y1930400D02*
X3275600D01*
X2390644Y1487422D02*
Y1494187D01*
X2397560Y1501103D01*
Y1634550D01*
X2351400Y1680710D02*
X2397560Y1634550D01*
X2351400Y1680710D02*
Y1765300D01*
X2475550Y1448750D02*
Y1548450D01*
X2476500Y1549400D01*
X2474600Y1447800D02*
X2475550Y1448750D01*
X2458600Y1463800D02*
X2474600Y1447800D01*
X2229758Y1844800D02*
X2298700Y1913742D01*
X2202300Y1844800D02*
X2229758D01*
X2186300Y1828800D02*
X2202300Y1844800D01*
X2298700Y1913742D02*
Y1968500D01*
X2186300Y1828800D02*
X2288410D01*
X2319893Y1796807D02*
X2351400Y1765300D01*
X2319893Y1796807D02*
Y1797318D01*
X2288410Y1828800D02*
X2319893Y1797318D01*
X2483460Y1707540D02*
Y1769140D01*
X2474600Y1778000D02*
X2483460Y1769140D01*
Y1707540D02*
X2489200Y1701800D01*
X2107250Y1891350D02*
X2120900Y1905000D01*
X2222500D01*
X2107250Y1829750D02*
Y1891350D01*
X2106300Y1828800D02*
X2107250Y1829750D01*
X2889860Y1097940D02*
X2895600Y1092200D01*
X2846700Y1155700D02*
X2889860Y1112540D01*
Y1097940D02*
Y1112540D01*
X2210750Y1194750D02*
X2259650D01*
X2209800Y1193800D02*
X2210750Y1194750D01*
X2259650D02*
X2260600Y1195700D01*
X2272350Y1762450D02*
X2273300Y1763400D01*
X2272350Y1715450D02*
X2273300Y1714500D01*
X2272350Y1715450D02*
Y1762450D01*
X2209800Y1600200D02*
X2271400D01*
X2475550Y1550350D02*
Y1611950D01*
X2474600Y1612900D02*
X2475550Y1611950D01*
Y1550350D02*
X2476500Y1549400D01*
X2413000Y1917700D02*
X2474600D01*
D28*
X2198700Y686000D02*
X2374900Y509800D01*
X2198700Y686000D02*
Y698500D01*
X2374900Y482600D02*
Y509800D01*
X2717800Y1106800D02*
X2766700Y1155700D01*
X2717800Y1092200D02*
Y1106800D01*
X2260600Y1066800D02*
Y1115700D01*
X1104900Y4533900D02*
X1117600Y4521200D01*
Y4410887D02*
Y4521200D01*
X482600Y4622800D02*
X596900D01*
D29*
X2790013Y3911600D02*
X2799827D01*
X2812933Y3924707D01*
Y4032133D01*
X2844800Y4064000D01*
D31*
X4622800Y368300D02*
D03*
X4368800D02*
D03*
X4622800Y622300D02*
D03*
X4368800D02*
D03*
X4622800Y876300D02*
D03*
X4368800D02*
D03*
X4622800Y1130300D02*
D03*
X4368800D02*
D03*
X4622800Y1384300D02*
D03*
X4368800D02*
D03*
X4622800Y1638300D02*
D03*
X4368800D02*
D03*
X4622800Y1892300D02*
D03*
X4368800D02*
D03*
X4622800Y2146300D02*
D03*
X4368800D02*
D03*
X4622800Y2400300D02*
D03*
X4368800D02*
D03*
X4622800Y2654300D02*
D03*
X4368800D02*
D03*
X4622800Y2908300D02*
D03*
X4368800D02*
D03*
X4622800Y3162300D02*
D03*
X4368800D02*
D03*
X4622800Y3416300D02*
D03*
X4368800D02*
D03*
X4622800Y3670300D02*
D03*
X4368800D02*
D03*
X4622800Y3924300D02*
D03*
X4368800D02*
D03*
X4622800Y4178300D02*
D03*
X4368800D02*
D03*
X4622800Y4432300D02*
D03*
X4368800D02*
D03*
X4622800Y4686300D02*
D03*
X482600Y4622800D02*
D03*
X228600Y4368800D02*
D03*
X482600D02*
D03*
X228600Y4114800D02*
D03*
X482600D02*
D03*
X228600Y3860800D02*
D03*
X482600D02*
D03*
X228600Y3606800D02*
D03*
X482600D02*
D03*
X228600Y3352800D02*
D03*
X482600D02*
D03*
X228600Y3098800D02*
D03*
X482600D02*
D03*
X228600Y2844800D02*
D03*
X482600D02*
D03*
X228600Y2590800D02*
D03*
X482600D02*
D03*
X228600Y2336800D02*
D03*
X482600D02*
D03*
X228600Y2082800D02*
D03*
X482600D02*
D03*
X228600Y1828800D02*
D03*
X482600D02*
D03*
X228600Y1574800D02*
D03*
X482600D02*
D03*
X228600Y1320800D02*
D03*
X482600D02*
D03*
X228600Y1066800D02*
D03*
X482600D02*
D03*
X228600Y812800D02*
D03*
X482600D02*
D03*
X228600Y558800D02*
D03*
X482600D02*
D03*
X228600Y304800D02*
D03*
X482600D02*
D03*
D32*
X4368800Y4686300D02*
D03*
X228600Y4622800D02*
D03*
D33*
X2287000Y4470400D02*
D03*
X2787000D02*
D03*
D34*
X1524000Y4660900D02*
D03*
D35*
Y4406900D02*
D03*
D36*
X2057400Y1612900D02*
D03*
X1676400Y2641600D02*
D03*
X1638300Y3111500D02*
D03*
X1625600Y2794000D02*
D03*
Y2971800D02*
D03*
X2844800Y4064000D02*
D03*
X2390644Y1487422D02*
D03*
X2298700Y1968500D02*
D03*
X2374900Y482600D02*
D03*
X2298700Y1257300D02*
D03*
D37*
X2550117Y1892736D02*
D03*
Y1740336D02*
D03*
X2565400Y1524000D02*
D03*
X2590800Y1612900D02*
D03*
X2362200Y2146300D02*
D03*
X1981200Y2032000D02*
D03*
X2667000Y2019300D02*
D03*
X2489200Y1701800D02*
D03*
X2336800Y1460500D02*
D03*
X2717800Y1092200D02*
D03*
X2222500Y1905000D02*
D03*
X2260600Y1066800D02*
D03*
X1803400Y2819400D02*
D03*
X1600200Y3443300D02*
D03*
X2032000Y3149600D02*
D03*
X3196413Y3911600D02*
D03*
X3098800Y4229100D02*
D03*
X2400300Y4533900D02*
D03*
X1104900D02*
D03*
X596900Y4622800D02*
D03*
X2895600Y1092200D02*
D03*
X2209800Y1193800D02*
D03*
X2882900Y1526000D02*
D03*
Y1651000D02*
D03*
X3150600Y1930400D02*
D03*
X2273300Y1714500D02*
D03*
X2209800Y1600200D02*
D03*
X2476500Y1549400D02*
D03*
X2413000Y1917700D02*
D03*
X1803399Y3023500D02*
D03*
X2950387Y3911600D02*
D03*
X3356787D02*
D03*
X1117600Y4250513D02*
D03*
X1346200Y2768600D02*
D03*
X2229450Y386750D02*
D03*
X1866900Y1003300D02*
D03*
X2171700Y4394200D02*
D03*
X2908300Y4457700D02*
D03*
X3328800Y4405500D02*
D03*
X2222200Y1447500D02*
D03*
X1524000Y4749800D02*
D03*
X2437000Y4740400D02*
D03*
X2637000D02*
D03*
X4762500Y368300D02*
D03*
Y609600D02*
D03*
X4775200Y876300D02*
D03*
Y1130300D02*
D03*
Y1384300D02*
D03*
Y1638300D02*
D03*
Y1892300D02*
D03*
Y2146300D02*
D03*
Y2400300D02*
D03*
Y2654300D02*
D03*
Y2908300D02*
D03*
Y3162300D02*
D03*
Y3416300D02*
D03*
Y3670300D02*
D03*
X4787900Y3924300D02*
D03*
Y4178300D02*
D03*
X4775200Y4432300D02*
D03*
Y4686300D02*
D03*
X76200Y304800D02*
D03*
Y558800D02*
D03*
X63500Y812800D02*
D03*
Y1066800D02*
D03*
X76200Y1320800D02*
D03*
Y1574800D02*
D03*
Y1828800D02*
D03*
Y2082800D02*
D03*
Y2336800D02*
D03*
Y2590800D02*
D03*
Y2844800D02*
D03*
Y3098800D02*
D03*
Y3352800D02*
D03*
Y3606800D02*
D03*
Y3860800D02*
D03*
Y4114800D02*
D03*
X88900Y4381500D02*
D03*
Y4622800D02*
D03*
D38*
X2198700Y698500D02*
D03*
X2398700D02*
D03*
D39*
X3150600Y1930400D02*
D03*
X3275600D02*
D03*
D40*
X2882900Y1526000D02*
D03*
Y1651000D02*
D03*
D41*
X1117600Y4410887D02*
D03*
Y4250513D02*
D03*
D42*
X3356787Y3911600D02*
D03*
X3196413D02*
D03*
X2950387D02*
D03*
X2790013D02*
D03*
D43*
X1803399Y3023500D02*
D03*
Y2818500D02*
D03*
D44*
X2106300Y1828800D02*
D03*
X2186300D02*
D03*
X2271400Y1600200D02*
D03*
X2351400D02*
D03*
X2271400Y1765300D02*
D03*
X2351400D02*
D03*
X2846700Y1155700D02*
D03*
X2766700D02*
D03*
X2474600Y1447800D02*
D03*
X2554600D02*
D03*
X2474600Y1612900D02*
D03*
X2554600D02*
D03*
X2474600Y1778000D02*
D03*
X2554600D02*
D03*
X2474600Y1917700D02*
D03*
X2554600D02*
D03*
D45*
X2260600Y1195700D02*
D03*
Y1115700D02*
D03*
%TF.MD5,a4f87a6762996978fda78db7c531a21d*%
M02*
